<?xml version="1.0" encoding="utf-8"?>
<!-- Svg Vector Icons : http://www.sfont.cn -->
<!DOCTYPE svg PUBLIC "-//W3C//DTD SVG 1.1//EN" "http://www.w3.org/Graphics/SVG/1.1/DTD/svg11.dtd">
<svg version="1.1" xmlns="http://www.w3.org/2000/svg" xmlns:xlink="http://www.w3.org/1999/xlink" x="0px" y="0px" viewBox="0 0 1000 1000" enable-background="new 0 0 1000 1000" xml:space="preserve">
<metadata> Svg Vector Icons : http://www.sfont.cn </metadata>
<g><g transform="translate(0.000000,511.000000) scale(0.100000,-0.100000)"><path d="M3789.8,4982.4c-363.5-89.7-644.2-379.6-722.4-745.5c-16.1-78.2-25.3-480.9-25.3-1143.5V2069.6H2018.2c-662.6,0-1065.3-9.2-1143.5-25.3c-384.2-80.5-678.7-381.9-754.7-768.5c-18.4-96.6-23-474-18.4-1253.9l6.9-1115.9l82.8-172.6c133.4-280.7,354.3-464.8,653.4-543c87.4-25.3,361.2-32.2,1157.3-32.2h1040v-1040c0-618.9,11.5-1083.7,25.3-1143.5c80.5-352,358.9-632.7,717.8-729.3c154.2-41.4,2199.5-46,2390.5-6.9c372.7,78.2,674.1,379.6,752.4,752.4c16.1,78.2,25.3,480.9,25.3,1143.5v1023.8h1023.9c662.6,0,1065.3,9.2,1143.5,25.3c372.7,78.2,674.1,379.6,752.4,752.4c39.1,191,34.5,2236.4-6.9,2390.5c-96.6,358.9-377.3,637.3-729.3,717.8c-59.8,13.8-524.6,25.3-1141.2,25.3H6953.4v1042.3c0,793.8-6.9,1067.6-32.2,1155c-78.2,299.1-262.3,520-543,653.4l-172.6,82.8l-1150.4,4.6C4204,5010,3874.9,5005.5,3789.8,4982.4z M5987.1,2575.8V1103.3h1472.5h1472.5V114v-989.3H7459.6H5987.1v-1472.5v-1472.5h-989.3h-989.3v1472.5v1472.5H2535.9H1063.4V114v989.3h1472.5h1472.5v1472.5v1472.5h989.3h989.3V2575.8z"/></g></g>
</svg>