<?xml version="1.0" encoding="utf-8"?>
<!-- Svg Vector Icons : http://www.sfont.cn -->
<!DOCTYPE svg PUBLIC "-//W3C//DTD SVG 1.1//EN" "http://www.w3.org/Graphics/SVG/1.1/DTD/svg11.dtd">
<svg version="1.1" xmlns="http://www.w3.org/2000/svg" xmlns:xlink="http://www.w3.org/1999/xlink" x="0px" y="0px" viewBox="0 0 1000 1000" enable-background="new 0 0 1000 1000" xml:space="preserve">
<metadata> Svg Vector Icons : http://www.sfont.cn </metadata>
<g><g transform="translate(0.000000,511.000000) scale(0.100000,-0.100000)"><path d="M1013.7,4983.8C574.7,4920,191.9,4527,125.6,4075.2c-35.7-245-33.2-7725.1,2.6-7944.5c74-454.3,436.4-816.7,893.2-890.7c214.4-35.7,7730.2-38.3,7944.6-2.5c467,76.6,832,441.5,908.5,908.5c35.7,214.4,33.2,7730.2-2.5,7947.1c-33.2,214.4-176.1,482.3-326.7,617.6c-148,130.1-385.4,245-579.3,275.6C8779.6,5017,1222.9,5014.4,1013.7,4983.8z M8828.1,111.9v-3828.1H5000H1171.9V111.9V3940H5000h3828.1V111.9z"/><path d="M4464.1,1732.5V647.8H3379.4H2294.8V111.9V-424h1084.6h1084.6v-1084.6v-1084.6H5000h535.9v1084.6V-424h1084.6h1084.6v535.9v535.9H6620.6H5535.9v1084.6v1084.6H5000h-535.9V1732.5z"/></g></g>
</svg>