<?xml version="1.0" encoding="utf-8"?>
<!-- Svg Vector Icons : http://www.sfont.cn -->
<!DOCTYPE svg PUBLIC "-//W3C//DTD SVG 1.1//EN" "http://www.w3.org/Graphics/SVG/1.1/DTD/svg11.dtd">
<svg version="1.1" xmlns="http://www.w3.org/2000/svg" xmlns:xlink="http://www.w3.org/1999/xlink" x="0px" y="0px" viewBox="0 0 1000 1000" enable-background="new 0 0 1000 1000" xml:space="preserve">
<metadata> Svg Vector Icons : http://www.sfont.cn </metadata>
<g><g transform="translate(0.000000,511.000000) scale(0.100000,-0.100000)"><path d="M3757.6,4987.9c246.2-285.2,332.4-441.2,332.4-601.2c2.1-166.2-59.5-270.9-328.3-558.1c-281.1-299.6-361.1-439.1-363.2-627.9c-2.1-281.1,207.2-510.9,646.4-716.1l98.5-45.1l-106.7,137.5c-149.8,194.9-186.7,289.3-176.5,443.2s65.7,244.2,365.2,582.7c238,272.9,313.9,408.3,324.2,593c8.2,108.7,0,147.7-45.1,238c-92.3,192.9-361.1,406.3-677.1,545.8C3739.1,5018.6,3730.9,5018.6,3757.6,4987.9z"/><path d="M2704.9,4602.1c174.4-199,121.1-391.9-246.2-888.5c-178.5-240.1-225.7-342.7-240.1-506.8c-16.4-219.6,112.9-420.7,365.2-570.4c92.3-53.3,396-160.1,533.5-188.8c65.7-14.4,55.4-4.1-92.3,106.7c-254.4,188.8-359.1,342.7-359.1,529.4c0,133.4,57.5,264.7,209.3,484.3c242.1,348.8,316,545.8,264.7,714.1c-45.1,151.8-197,285.2-410.4,361.1l-88.2,30.8L2704.9,4602.1z"/><path d="M5317,4269.7c28.7-59.5,36.9-106.7,32.8-194.9c-10.3-147.7-90.3-270.8-342.7-537.6c-221.6-231.9-297.5-365.3-297.5-525.3c0-65.7,14.4-139.5,32.8-176.5c71.8-133.4,285.2-295.5,480.2-365.2l80-26.7l-75.9,151.9c-63.6,127.2-78,176.5-78,275c0,162.1,45.1,244.2,256.5,482.2c186.7,211.3,236,311.9,236,492.5c0,145.7-82.1,299.6-221.6,412.4c-59.5,49.2-117,88.2-125.2,88.2C5284.2,4345.6,5294.5,4310.7,5317,4269.7z"/><path d="M3435.4,2067.9c-595.1-39-1128.6-143.6-1528.7-301.6c-471.9-186.7-761.3-488.4-820.8-857.7c-28.7-172.4-26.7-4368.6,2.1-4545.1c28.7-184.7,100.5-328.3,227.8-465.8c324.2-344.7,931.6-562.2,1863.2-664.8c326.3-34.9,1106-28.7,1446.6,10.3c1231.2,147.7,1906.3,527.3,2000.6,1120.4c26.7,176.5,28.7,4374.7,0,4545.1c-84.1,515-558.1,851.6-1467.1,1042.4C4674.8,2053.6,3954.5,2102.8,3435.4,2067.9z M4820.5,1464.7c488.4-73.9,816.7-186.7,882.3-303.7c26.7-51.3,26.7-63.6,0-112.9c-65.7-117-416.5-238-890.5-305.7c-309.8-43.1-1257.9-61.6-1614.9-30.8c-732.5,65.7-1208.6,219.6-1208.6,391.9c0,153.9,424.8,305.7,1056.8,377.5C3404.6,1522.1,4508.6,1511.9,4820.5,1464.7z"/><path d="M6975,327.9v-449.4l221.6-12.3c467.8-22.6,683.3-160.1,790-496.6c41-129.3,45.1-186.7,45.1-564.3c0-377.6-4.1-435-45.1-564.3c-106.7-336.5-322.2-474-790-496.6l-221.6-12.3v-447.3v-449.4l180.6,12.3c816.7,53.4,1294.8,318,1563.6,859.8c287.3,580.7,287.3,1614.9,0,2195.6C8450.4,444.8,7978.4,705.4,7155.6,765L6975,777.3V327.9z"/></g></g>
</svg>