<?xml version="1.0" encoding="utf-8"?>
<!-- Svg Vector Icons : http://www.sfont.cn -->
<!DOCTYPE svg PUBLIC "-//W3C//DTD SVG 1.1//EN" "http://www.w3.org/Graphics/SVG/1.1/DTD/svg11.dtd">
<svg version="1.1" xmlns="http://www.w3.org/2000/svg" xmlns:xlink="http://www.w3.org/1999/xlink" x="0px" y="0px" viewBox="0 0 1000 1000" enable-background="new 0 0 1000 1000" xml:space="preserve">
<metadata> Svg Vector Icons : http://www.sfont.cn </metadata>
<g><g transform="translate(0.000000,511.000000) scale(0.100000,-0.100000)"><path d="M3908.7,3972.3l-1081.7-658.6l-9.6,384.8l-9.6,384.8h-631.8h-631.8l-5.7-779.2l-3.8-777.3l-685.4-417.4c-375.2-227.8-698.8-428.8-716-444.2c-38.3-32.5-44-91.9-15.3-137.8c13.4-23,78.5-30.6,310.2-38.3l292.9-9.6l5.7-2626.7l3.8-2628.6h4298h4298l3.8,2626.7l5.7,2628.6l264.2,9.6c206.8,7.7,268,15.3,281.4,38.3c28.7,45.9,23,107.2-15.3,137.8c-40.2,34.5-4826.4,2952.1-4857,2959.8C5000,4627.1,4502.2,4334.1,3908.7,3972.3z M4923.4,3020.8V1661.5h-1053h-1053v723.7V3107l1047.2,637.5c576.3,348.4,1049.1,635.6,1053,635.6C4921.5,4380.1,4923.4,3769.4,4923.4,3020.8z M6144.9,3738.7L7182.5,3107v-721.8v-723.7h-1053h-1053v1361.2c0,748.6,7.6,1357.4,15.3,1353.5C5099.6,4374.3,5574.3,4087.2,6144.9,3738.7z M2664.3,2331.6v-670.1H1559.7c-693,0-1095.1,7.7-1077.8,19.1C866.7,1920,2639.5,2999.7,2650.9,2999.7C2658.6,3001.7,2664.3,2701.1,2664.3,2331.6z M8440.3,2339.3c597.3-363.8,1091.3-666.2,1095.1-670.1c3.8-3.8-488.2-7.7-1095.1-7.7H7335.7v670.1c0,369.5,3.8,670.1,7.7,670.1C7347.1,3001.7,7841.1,2703,8440.3,2339.3z M5919,752.2V15.1h-976.4h-976.4v-765.8v-765.8H2434.6H903V-13.6v1502.9h2508h2508V752.2z M5919-1057v-899.8h-890.2h-890.2v899.8v899.8h890.2H5919V-1057z"/><path d="M734.6-4133.6l5.7-264.2l4273.1-5.7c4254-3.8,4273.1-3.8,4294.2,34.5c11.5,23,17.2,130.2,15.3,262.3l-5.7,225.9l-4294.2,5.8l-4294.2,3.8L734.6-4133.6z"/></g></g>
</svg>