<?xml version="1.0" encoding="utf-8"?>
<!-- Svg Vector Icons : http://www.sfont.cn -->
<!DOCTYPE svg PUBLIC "-//W3C//DTD SVG 1.1//EN" "http://www.w3.org/Graphics/SVG/1.1/DTD/svg11.dtd">
<svg version="1.1" xmlns="http://www.w3.org/2000/svg" xmlns:xlink="http://www.w3.org/1999/xlink" x="0px" y="0px" viewBox="0 0 1000 1000" enable-background="new 0 0 1000 1000" xml:space="preserve">
<metadata> Svg Vector Icons : http://www.sfont.cn </metadata>
<g><g><g><path d="M976.2,717.6L699,500l277.2-217.6c10.2-7.3,14.8-17.5,13.7-30.6c-1.8-12.8-8.2-22-19.2-27.9l-70-35c-4.7-2.6-10-3.8-15.8-3.8c-6.2,0-11.8,1.5-16.9,4.4L490.7,401l-60.1-36.1c-2.9-1.5-5.1-2.4-6.6-2.7c5.1-17.9,6.9-35.5,5.5-53c-2.6-28.1-12.8-55-30.6-80.9C381,202.4,356.9,180,326.7,161c-48.1-30.6-98.6-45.9-151.4-45.9c-49.9,0-90.4,14.4-121.4,43.2c-15.7,14.2-27.2,31.2-34.7,50.8c-7.5,19.7-10.3,40.3-8.5,61.8c2.5,27.7,12.8,54.5,30.6,80.4c17.9,25.9,41.7,48.5,71.6,67.8c48.1,30.6,98.8,45.9,152,45.9c30.3,0,57.8-5.6,82.6-16.9c3.3,4.7,7.3,8.8,12,12l66.7,39.9l-66.7,39.9c-4.7,3.3-8.7,7.3-12,12c-24.8-11.3-52.3-16.9-82.6-16.9c-53.2,0-103.9,15.3-152,45.9c-29.9,19.3-53.8,41.9-71.6,67.8c-17.9,25.9-28.1,52.7-30.6,80.4c-4,44.8,10.4,82.6,43.2,113.2c31.3,28.4,71.8,42.6,121.4,42.6c52.9,0,103.3-15.3,151.4-45.9c30.2-19.3,54.3-41.8,72.2-67.5c17.9-25.7,28.1-52.6,30.6-80.6c1.5-17.5-0.4-35.2-5.5-53c1.5-0.4,3.6-1.3,6.6-2.7l60.1-36.1l377.2,211.6c5.1,2.9,10.8,4.4,16.9,4.4c5.8,0,11.1-1.3,15.8-3.8l70-35c10.9-5.8,17.3-15.1,19.1-27.9C990.9,735.1,986.4,724.9,976.2,717.6z M326.7,357.8c-14.2,13.1-34.8,19.7-61.8,19.7c-36.5,0-71.4-10.8-105-32.3c-29.5-18.6-48.8-39.9-57.9-64c-9.1-24-5.3-43.7,11.5-59c14.2-13.1,34.8-19.7,61.8-19.7c36.5,0,71.4,10.8,105,32.3c29.5,18.6,48.8,39.9,57.9,64C347.3,322.9,343.4,342.5,326.7,357.8z M338.1,701.2c-9.1,24.1-28.4,45.4-57.9,64c-33.5,21.5-68.5,32.3-105,32.3c-27,0-47.6-6.6-61.8-19.7c-16.8-15.3-20.6-35-11.5-59.1c9.1-24.1,28.4-45.4,57.9-64c33.5-21.5,68.5-32.3,105-32.3c27,0,47.6,6.6,61.8,19.7C343.4,657.5,347.3,677.2,338.1,701.2z M377.5,430l4.9-4.9c0.4-0.4,0.9-0.8,1.6-1.4c0.7-0.6,1.5-1.2,2.2-1.9c1.8-1.5,4-3.6,6.6-6.6c2.6-2.9,4.4-4.9,5.5-6l14.2-14.2l43.2,25.7l-7.7,4.4c-12,7.3-18,17.5-18,30.6v6L377.5,430z M500,552.5L412.5,605l-14.2-14.2c-1.5-1.5-3.5-3.6-6-6.6c-2.5-2.9-4.6-5.1-6-6.6c-1.8-1.5-3.1-2.6-3.8-3.3l-4.9-4.4l87.5-52.5v-61.8l419.9-235.6l70,35L552.4,570L500,552.5z M884.9,779.9L566.7,601.1c4-1.5,6.4-2.7,7.1-3.8l96.8-75.4l284.3,223.1L884.9,779.9z"/><path d="M535,465c-9.5,0-17.7,3.5-24.6,10.4c-6.9,6.9-10.4,15.1-10.4,24.6c0,9.5,3.5,17.7,10.4,24.6c6.9,6.9,15.1,10.4,24.6,10.4c9.5,0,17.7-3.5,24.6-10.4c6.9-6.9,10.4-15.1,10.4-24.6c0-9.5-3.5-17.7-10.4-24.6C552.6,468.5,544.4,465,535,465z"/></g></g><g></g><g></g><g></g><g></g><g></g><g></g><g></g><g></g><g></g><g></g><g></g><g></g><g></g><g></g><g></g></g>
</svg>