<?xml version="1.0" encoding="utf-8"?>
<!-- Svg Vector Icons : http://www.sfont.cn -->
<!DOCTYPE svg PUBLIC "-//W3C//DTD SVG 1.1//EN" "http://www.w3.org/Graphics/SVG/1.1/DTD/svg11.dtd">
<svg version="1.1" xmlns="http://www.w3.org/2000/svg" xmlns:xlink="http://www.w3.org/1999/xlink" x="0px" y="0px" viewBox="0 0 1000 1000" enable-background="new 0 0 1000 1000" xml:space="preserve">
<metadata> Svg Vector Icons : http://www.sfont.cn </metadata>
<g><g transform="translate(0.000000,511.000000) scale(0.100000,-0.100000)"><path d="M4640.4,4969.1c-163.5-51.1-312.7-181.9-388.4-341.4c-47-96.1-57.2-145.1-57.2-280c-2-198.3,57.2-345.4,192.1-480.4c116.5-116.5,226.9-161.5,519.2-206.5c134.9-20.4,278-42.9,316.8-51.1l69.5-12.3L2849.8,1152.9C112.9-1588.2,311.1-1367.4,309.1-1682.2c0-136.9,8.2-181.9,57.2-278c65.4-134.9,202.4-269.8,337.3-331.1c73.6-34.8,134.9-45,259.6-45c312.7,2.1,98.1-192.1,2784,2489.6C5274,1678.2,6146.8,2536.7,6153,2516.3c4.1-16.3,18.4-102.2,30.7-192.1c55.2-402.7,308.6-645.9,670.4-645.9c179.9,0,312.7,49.1,437.4,161.5c145.1,130.8,222.8,294.3,222.8,474.2c0,73.6-61.3,537.6-134.9,1032.2c-151.3,1003.6-167.6,1069-329.1,1218.2c-157.4,145.1-202.4,155.3-1222.3,306.6c-517.1,77.7-966.8,139-1001.6,139C4793.7,5010,4707.9,4991.6,4640.4,4969.1z"/><path d="M8877.7,2293.5c-40.9-10.2-114.5-38.8-163.5-63.4c-59.3-28.6-827.8-784.9-2461-2416C4149.8-2287.2,3878-2552.9,3867.7-2508c-6.1,26.6-28.6,171.7-53.1,320.9c-61.3,398.6-155.4,551.9-417,670.4c-404.7,186-889.2-98.1-926-541.7c-14.3-173.7,263.7-1970.4,325-2101.3c59.3-126.8,184-249.4,310.7-308.6c132.9-63.4,1950-339.3,2109.4-320.9c214.6,24.6,423.1,173.7,521.2,374.1c40.9,79.7,49.1,128.8,49.1,290.2c0,163.5-8.2,208.5-47,282.1c-122.6,233-310.7,349.5-621.4,392.4c-100.1,14.3-179.8,30.7-179.8,36.8c0,8.2,1046.5,1062.9,2326.1,2344.5c2610.2,2612.3,2424.2,2405.8,2426.3,2718.6c0,194.2-42.9,306.6-173.8,447.6C9364.1,2262.8,9092.3,2346.6,8877.7,2293.5z"/></g></g>
</svg>