<?xml version="1.0" encoding="utf-8"?>
<!-- Svg Vector Icons : http://www.sfont.cn -->
<!DOCTYPE svg PUBLIC "-//W3C//DTD SVG 1.1//EN" "http://www.w3.org/Graphics/SVG/1.1/DTD/svg11.dtd">
<svg version="1.1" xmlns="http://www.w3.org/2000/svg" xmlns:xlink="http://www.w3.org/1999/xlink" x="0px" y="0px" viewBox="0 0 1000 1000" enable-background="new 0 0 1000 1000" xml:space="preserve">
<metadata> Svg Vector Icons : http://www.sfont.cn </metadata>
<g><g transform="translate(0.000000,511.000000) scale(0.100000,-0.100000)"><path d="M4117.7,3683c-737.8-737.8-887.3-896.9-887.3-941c0-70.9,182.1-258.7,253-258.7c38.3,0,203.1,153.3,785.7,737.8c573,573,747.4,737.8,785.7,737.8c36.4,0,210.8-164.8,785.7-737.8c580.7-580.7,749.3-737.8,787.6-737.8c70.9,0,247.2,184,247.2,258.7c0,49.8-113.1,170.6-887.3,944.8c-686.1,686.1-896.9,885.4-933.3,885.4C5018.4,4572.2,4807.6,4372.9,4117.7,3683z"/><path d="M8893.4,4486c-139.9-70.9-203.1-170.6-212.7-333.5c-7.7-157.1,44.1-270.2,164.8-356.4c109.2-74.7,285.6-90.1,398.6-32.6c249.1,128.4,314.3,427.4,136.1,630.5C9255.6,4535.8,9067.8,4572.2,8893.4,4486z"/><path d="M5744.7,4457.2c-28.8-28.7-38.3-63.2-38.3-139.9v-99.7l264.5-264.5c143.7-143.7,270.2-262.6,277.9-262.6c7.7,0,13.4,159.1,13.4,352.6c0,325.8-1.9,354.5-40.2,402.5c-38.3,47.9-46,49.8-239.6,49.8C5808,4495.6,5777.3,4489.8,5744.7,4457.2z"/><path d="M1122.4,3817.2c-224.2-82.4-335.4-276-283.6-494.4c47.9-197.4,277.9-352.6,463.8-312.4c402.4,88.2,479.1,599.8,116.9,783.8C1329.4,3838.2,1204.8,3849.7,1122.4,3817.2z"/><path d="M4303.6,3006.5l-705.2-705.2v-691.8c0-645.8,1.9-693.7,34.5-722.5c30.7-28.8,92-32.6,448.4-32.6c369.9,0,415.9,3.8,442.7,34.5c26.8,28.8,30.7,107.3,36.4,548.1c5.7,513.6,5.7,513.6,51.7,550c40.2,32.6,78.6,36.4,440.8,36.4c327.7,0,402.4-5.8,438.8-30.7c42.2-28.8,42.2-34.5,42.2-515.5c0-473.3,9.6-574.9,63.2-607.5c13.4-7.7,207-15.3,431.2-15.3c381.4,0,408.2,1.9,444.6,38.3c36.4,36.4,38.3,63.2,38.3,724.4v684.2l-705.2,705.2c-540.4,540.4-714.8,703.3-751.2,703.3C5018.4,3709.8,4844,3546.9,4303.6,3006.5z"/><path d="M8489,3642.8c-34.5-15.3-201.2-149.5-367.9-299c-274-241.5-310.5-268.3-341.1-245.3c-17.3,15.3-118.8,99.6-224.2,189.7c-285.5,245.3-293.2,249.1-381.4,249.1c-84.3-1.9-126.5-24.9-161-90.1c-30.7-57.5-28.8-101.6,11.5-172.5c34.5-67.1,636.2-590.3,709.1-620.9c61.3-24.9,197.4-21.1,247.2,7.7c21.1,13.4,151.4,120.7,287.5,241.5l245.3,218.5l9.6-1640.4c9.6-1619.4,9.6-1640.4,49.8-1692.2c67.1-90.1,134.2-128.4,222.3-128.4c109.2,0,199.3,47.9,241.5,132.2l36.4,69l40.2-67.1c53.7-92,124.6-134.2,224.2-134.2c103.5,0,201.2,55.6,243.4,139.9c30.7,61.3,34.5,149.5,34.5,1006.1v939l72.8,38.3c95.8,51.7,168.6,201.2,197.4,402.4c28.8,199.3,9.6,1029.1-26.8,1180.5c-51.7,208.9-155.2,304.7-335.4,304.7h-72.8l-51.7-161c-51.7-159.1-230-538.5-287.5-615.2c-24.9-30.7-32.6-32.6-59.4-11.5c-44.1,36.4-251,465.7-306.6,634.3c-47.9,143.7-47.9,143.7-120.7,147.6C8584.9,3669.6,8523.5,3658.1,8489,3642.8z"/><path d="M8960.5,3487.5c-67.1-34.5-67.1-78.6-3.8-170.6c32.6-49.8,46-90.1,40.3-122.7c-5.7-30.7,7.7-82.4,34.5-136.1l44.1-84.3l40.3,82.4c23,44.1,40.2,105.4,38.3,132.2c-3.8,32.6,15.3,84.3,49.8,134.2c42.2,65.2,49.8,92,34.5,115C9190.4,3516.3,9054.4,3539.3,8960.5,3487.5z"/><path d="M629.9,2916.5c-51.7-28.8-513.6-831.7-528.9-921.8c-5.7-30.7,15.3-258.7,46-505.9c51.7-419.7,57.5-450.4,105.4-496.3c92-92,253-55.6,300.9,67.1c9.6,24.9-1.9,184-28.8,402.4l-44.1,360.3l97.7,172.5l97.7,172.5l9.6-1517.8C695-847.4,695-868.5,735.3-922.1c116.9-161,369.9-153.3,463.8,15.3c19.2,30.7,36.4,55.6,42.2,55.6c5.7,0,23-24.9,42.2-55.6c93.9-168.6,346.9-176.3,463.8-15.3c40.2,53.7,40.2,74.7,49.8,1588.7l9.6,1533.1l124.6-180.1c86.2-122.6,145.6-187.8,193.6-212.7c38.3-17.3,249.1-93.9,467.6-166.7c360.3-122.6,406.3-132.2,463.8-113.1c105.4,34.5,149.5,157.1,92,264.5c-32.6,63.2-9.6,51.7-392.9,184c-162.9,55.6-310.5,107.3-327.7,115c-15.3,5.7-122.6,145.7-233.8,312.4c-356.5,523.2-371.8,540.4-532.8,540.4h-88.2l-61.3-145.7c-74.7-178.2-237.6-473.3-266.4-482.9c-26.8-7.7-176.3,247.2-266.4,461.8l-70.9,166.7H790.9C727.6,2941.4,654.8,2929.9,629.9,2916.5z"/><path d="M1130.1,2836l-44.1-30.7l49.8-84.3c30.7-53.7,46-99.6,38.3-122.6c-11.5-34.5,40.2-153.3,67.1-153.3c23,0,74.7,134.2,65.2,162.9c-5.7,15.3,5.8,57.5,28.8,92c23,36.4,40.2,80.5,40.2,95.8C1375.4,2864.7,1208.6,2891.5,1130.1,2836z"/><path d="M4612.2,503.7c-116.9-44.1-191.6-111.2-239.6-212.7c-132.2-281.7,57.5-586.4,364.1-586.4c132.2,0,182.1,19.2,277.9,105.4c207,187.8,170.6,525.1-69,657.3C4846,522.9,4704.2,538.2,4612.2,503.7z"/><path d="M5733.3-103.8c-107.3-44.1-128.4-166.7-63.2-362.2c23-65.1,36.4-122.6,32.6-126.5c-3.8-3.8-105.4,42.2-226.1,105.4c-159.1,80.5-247.2,113.1-312.4,118.8l-93.9,5.7l-36.4-95.8c-21.1-51.7-86.2-189.7-147.6-306.6c-82.4-153.3-122.7-210.8-147.6-210.8c-26.8,0-69,65.2-162.9,249.1c-70.9,138-138,277.9-149.5,314.3l-23,65.1l-118.8-13.4c-67.1-5.8-139.9-26.8-166.7-46c-23-17.3-151.4-222.3-281.7-454.2c-178.2-318.1-237.6-438.9-235.7-488.7c0-36.4,23-260.6,53.7-496.4c51.7-412,55.6-433.1,105.4-475.3c70.9-59.4,164.8-57.5,239.6,5.8c72.8,61.3,74.7,105.4,21.1,528.9l-38.3,300.9l99.7,176.3l101.6,178.2l9.6-1523.5c9.6-1414.3,11.5-1527.4,44.1-1575.3c76.7-118.8,208.9-153.3,345-93.9c65.2,28.8,97.7,59.4,120.7,107.3l32.6,67.1l40.2-59.4c67.1-99.7,138-139.9,241.5-139.9c99.6,0,166.7,36.4,237.6,132.2c40.2,51.7,40.2,70.9,46,1699.8c1.9,904.6,7.7,1646.2,11.5,1646.2c3.8,0,149.5-82.4,322-182.1c262.6-153.3,325.8-182.1,394.8-182.1c111.2,0,195.5,78.6,195.5,182.1c0,113.1-243.4,826-302.8,891.1C5863.6-98.1,5794.6-77,5733.3-103.8z"/><path d="M4658.2-458.3c-74.7-32.6-76.7-49.8-21.1-141.8c24.9-38.3,40.2-84.3,36.4-105.4c-1.9-19.2,9.6-70.9,28.7-111.2l34.5-74.7l32.6,63.2c19.2,34.5,34.5,86.3,36.4,115c0,28.7,17.2,80.5,38.3,115c53.7,88.1,47.9,109.2-28.7,141.8C4736.7-423.8,4734.8-423.8,4658.2-458.3z"/></g></g>
</svg>