<?xml version="1.0" encoding="utf-8"?>
<!-- Svg Vector Icons : http://www.sfont.cn -->
<!DOCTYPE svg PUBLIC "-//W3C//DTD SVG 1.1//EN" "http://www.w3.org/Graphics/SVG/1.1/DTD/svg11.dtd">
<svg version="1.1" xmlns="http://www.w3.org/2000/svg" xmlns:xlink="http://www.w3.org/1999/xlink" x="0px" y="0px" viewBox="0 0 1000 1000" enable-background="new 0 0 1000 1000" xml:space="preserve">
<metadata> Svg Vector Icons : http://www.sfont.cn </metadata>
<g><g transform="translate(0.000000,512.000000) scale(0.100000,-0.100000)"><path d="M4295.4,4679.3v-340.7l-185.7-34.4c-1001-185.7-1686.3-777.1-1912.1-1651.9c-67-256.5-82.3-664.2-38.3-924.5c112.9-643.1,551.3-1192.5,1313-1642.3c189.5-112.9,549.3-281.4,723.5-336.9l99.5-34.5v-1184.8c0-945.6-5.7-1184.8-24.9-1184.8c-47.9,0-269.9,145.5-390.5,256.5c-275.6,252.6-463.2,631.6-465.1,936v90h-750.3h-748.4l11.5-223.9c65.1-1182.9,893.9-2113.1,2166.7-2430.9l201-49.8v-350.3V-4780h708.2h708.2l3.8,336.9l5.7,338.8l258.4,51.7c635.5,128.3,1129.3,379,1483.4,750.3c333.1,346.4,530.2,771.4,604.8,1295.8c32.5,229.7,11.5,786.7-36.4,997.2C7821.2-107.8,7149.3,539.2,6012.4,933.5l-290.9,101.4l-5.7,951.3l-3.8,949.4l42.1-11.5c80.4-24.9,260.3-143.5,348.3-229.7c162.7-157,279.5-403.9,279.5-585.7v-74.6h643.1h645l-11.5,149.3c-23,304.3-109.1,618.3-243.1,893.9c-300.5,620.2-832.6,1027.9-1563.8,1205.9l-139.7,32.5v352.2V5020h-708.2h-708.2V4679.3z M4287.8,1484.7c-5.7-5.7-80.4,28.7-168.4,72.7c-214.4,112.9-417.3,310.1-465.1,453.6c-105.3,321.6,97.6,696.7,478.5,886.2l153.1,76.6l5.7-740.7C4293.5,1825.4,4291.6,1488.6,4287.8,1484.7z M5920.5-806.4c323.5-158.9,520.6-327.3,616.3-522.5c59.3-122.5,72.7-386.6,28.7-562.7c-55.5-216.3-135.9-356-306.3-524.5c-151.2-149.3-346.4-269.9-495.7-306.3l-51.7-13.4V-1729c0,708.2,5.7,1006.8,21.1,1006.8C5744.4-722.2,5828.6-760.5,5920.5-806.4z"/></g></g>
</svg>