<?xml version="1.0" encoding="utf-8"?>
<!-- Svg Vector Icons : http://www.sfont.cn -->
<!DOCTYPE svg PUBLIC "-//W3C//DTD SVG 1.1//EN" "http://www.w3.org/Graphics/SVG/1.1/DTD/svg11.dtd">
<svg version="1.1" xmlns="http://www.w3.org/2000/svg" xmlns:xlink="http://www.w3.org/1999/xlink" x="0px" y="0px" viewBox="0 0 1000 1000" enable-background="new 0 0 1000 1000" xml:space="preserve">
<metadata> Svg Vector Icons : http://www.sfont.cn </metadata>
<g><g transform="translate(0.000000,511.000000) scale(0.100000,-0.100000)"><path d="M4890.4,4995.8c-150.9-30.6-262.5-113.7-391.5-297.5c-194.7-271.2-1360.6-1929.3-1472.1-2091.1c-159.7-234-155.3-424.4,13.1-599.3c113.8-118.1,218.7-142.2,614.7-142.2h293.1l6.6-1119.9c8.8-1297.1,2.2-1253.4,212.2-1463.3c190.3-188.1,258.1-205.6,833.4-205.6c575.3,0,643.1,17.5,833.4,205.6c210,212.2,203.4,166.2,212.2,1463.3l6.6,1119.9h306.2c382.8,0,481.2,24.1,599.3,142.2c133.4,133.4,170.6,328.1,91.9,481.2C7005.5,2574.4,5435,4792.4,5376,4851.5C5264.4,4965.2,5050,5028.7,4890.4,4995.8z"/><path d="M2353,1141.7c-168.4-24.1-354.4-96.2-465.9-181.5c-61.3-45.9-319.4-387.2-785.3-1036.8C719-610.4,406.2-1050.1,406.2-1054.4s65.6,17.5,148.7,48.1c133.4,54.7,181.6,61.3,540.3,72.2l393.7,10.9l441.9,645.3c245,354.4,468.1,667.2,498.7,695.6c56.9,48.1,67.8,48.1,614.7,48.1h555.6v350v350l-562.2-2.2C2727,1161.4,2418.6,1152.6,2353,1141.7z"/><path d="M6399.6,815.8v-350h555.6c546.8,0,557.8,0,614.6-48.1c30.6-28.4,255.9-341.2,498.7-695.6l444-645.3l393.7-13.1c350-8.8,406.9-17.5,540.3-67.8c80.9-30.6,146.6-52.5,146.6-48.1c0,4.4-312.8,441.8-695.6,975.6c-459.3,638.7-728.4,993.1-787.5,1039c-216.6,164.1-430.9,203.4-1157.1,203.4h-553.4V815.8z"/><path d="M782.5-1316.9c-177.2-39.4-293.1-107.2-433.1-255.9C110.9-1824.4,100-1883.4,100-3025.3c0-553.4,8.7-947.2,24.1-1028.1c65.6-358.7,347.8-640.9,706.5-706.5c183.7-32.8,8154.5-32.8,8338.3,0c363.1,67.8,638.7,343.4,706.5,706.5c32.8,175,32.8,1863.7,0,2038.6c-65.6,354.3-323.8,625.6-671.5,697.8C8989.5-1271,992.4-1271,782.5-1316.9z M4116-2369.1c91.9-43.7,159.7-135.6,177.2-238.4l13.1-76.6h693.4h693.4l15.3,87.5c48.1,304.1,522.8,358.7,658.4,76.6c28.4-65.6,35-131.2,28.4-367.5c-6.6-258.1-10.9-295.3-54.7-356.5c-102.8-142.2-78.8-140-1340.9-140c-1262.1,0-1238.1-2.2-1340.9,140c-43.8,63.4-48.1,91.9-48.1,385s4.4,321.6,48.1,385C3752.9-2342.8,3958.5-2294.7,4116-2369.1z"/></g></g>
</svg>