<?xml version="1.0" encoding="utf-8"?>
<!-- Svg Vector Icons : http://www.sfont.cn -->
<!DOCTYPE svg PUBLIC "-//W3C//DTD SVG 1.1//EN" "http://www.w3.org/Graphics/SVG/1.1/DTD/svg11.dtd">
<svg version="1.1" xmlns="http://www.w3.org/2000/svg" xmlns:xlink="http://www.w3.org/1999/xlink" x="0px" y="0px" viewBox="0 0 1000 1000" enable-background="new 0 0 1000 1000" xml:space="preserve">
<metadata> Svg Vector Icons : http://www.sfont.cn </metadata>
<g><g transform="translate(0.000000,511.000000) scale(0.100000,-0.100000)"><path d="M4476.9,4629.9c-153.1-43.7-242.8-100.6-350-220.9c-164.1-185.9-164.1-185.9-172.8-1249l-6.6-942.7l-365.3-8.8c-325.9-6.6-376.2-13.1-457.2-56.9c-185.9-96.3-271.2-345.6-175-494.3c63.4-96.2,1546.5-1964.3,1631.8-2056.1c111.6-118.1,242.8-172.8,417.8-172.8c175,0,306.2,54.7,417.8,172.8c85.3,91.9,1568.4,1959.9,1631.8,2056.1c96.2,148.7,10.9,398.1-175,494.3c-80.9,43.8-131.2,50.3-457.2,56.9l-365.3,8.8l-6.6,942.7c-8.7,1098.1-6.6,1078.4-212.2,1286.2c-185.9,183.7-249.4,201.2-789.6,210C4695.7,4660.5,4568.8,4653.9,4476.9,4629.9z"/><path d="M2403.3,3588.7c-220.9-41.6-420-183.7-553.4-391.5C1784.3,3096.5,178.7-827.6,196.2-843c4.4-4.4,52.5,21.9,107.2,59.1C502.5-650.5,712.5-587,966.2-587c150.9,0,181.5,6.6,194.7,39.4c8.7,19.7,288.7,780.9,625.6,1688.7c516.2,1397.7,621.2,1660.2,675.9,1712.7l65.6,59.1h535.9h535.9v350v350l-551.2-2.2C2744.5,3608.3,2453.6,3599.6,2403.3,3588.7z"/><path d="M6399.6,3264.9v-352.2h538.1H7478l65.6-70c52.5-56.9,183.7-391.5,632.2-1603.3C8486.4,397.3,8766.4-357.4,8797-438.3l56.9-148.7h177.2c255.9,0,465.9-63.4,665-196.9c54.7-37.2,102.8-63.4,107.2-59.1c4.4,4.4-234,601.5-529.3,1329.9c-295.3,726.2-649.7,1601.2-787.5,1944.6C8202,3133.7,8143,3245.3,7978.9,3394c-205.6,190.3-269.1,205.6-971.2,214.4l-608.1,8.8V3264.9z"/><path d="M782.5-969.8c-177.2-39.4-293.1-107.2-433.1-255.9C110.9-1477.3,100-1536.4,100-2678.2c0-553.4,8.7-947.1,24.1-1028.1c65.6-358.7,347.8-640.9,706.5-706.5c183.7-32.8,8154.5-32.8,8338.3,0c363.1,67.8,638.7,343.4,706.5,706.5c32.8,175,32.8,1863.6,0,2038.6c-65.6,354.4-323.8,625.6-671.5,697.8C8989.5-923.9,992.4-923.9,782.5-969.8z M4116-2021.9c91.9-43.8,159.7-135.6,177.2-238.4l13.1-76.6h693.4h693.4l15.3,87.5c48.1,304.1,522.8,358.7,658.4,76.6c28.4-65.6,35-131.2,28.4-367.5c-6.6-258.1-10.9-295.3-54.7-356.5c-102.8-142.2-78.8-140-1340.9-140c-1262.1,0-1238.1-2.2-1340.9,140c-43.8,63.4-48.1,91.9-48.1,385s4.4,321.5,48.1,385C3752.9-1995.7,3958.5-1947.6,4116-2021.9z"/></g></g>
</svg>