<?xml version="1.0" encoding="utf-8"?>
<!-- Svg Vector Icons : http://www.sfont.cn -->
<!DOCTYPE svg PUBLIC "-//W3C//DTD SVG 1.1//EN" "http://www.w3.org/Graphics/SVG/1.1/DTD/svg11.dtd">
<svg version="1.1" xmlns="http://www.w3.org/2000/svg" xmlns:xlink="http://www.w3.org/1999/xlink" x="0px" y="0px" viewBox="0 0 1000 1000" enable-background="new 0 0 1000 1000" xml:space="preserve">
<metadata> Svg Vector Icons : http://www.sfont.cn </metadata>
<g><g transform="translate(0.000000,511.000000) scale(0.100000,-0.100000)"><path d="M4743.7,4991.5c-1202.8-132.1-2222.3-952.4-2579.2-2080.3c-112.4-349-140-532.4-140-905.1c0-615.2,157.7-1133.8,502.8-1656.3c167.6-252.4,571.8-658.6,826.2-826.2c345.1-226.8,741.4-390.4,1143.7-467.3c258.3-49.3,767.1-49.3,1025.4,0c627,120.3,1127.9,388.4,1587.3,849.9c461.4,459.4,729.6,960.3,849.8,1587.3c49.3,258.3,49.3,767.1,0,1025.4c-120.3,627-388.4,1127.9-849.8,1587.3c-455.5,457.5-938.6,719.7-1545.9,840C5378.6,4981.6,4905.4,5009.2,4743.7,4991.5z M4398.6,4614.8c0-9.9-21.7-31.5-47.3-49.3c-33.5-23.6-61.1-29.6-102.5-17.7c-57.2,15.8-55.2,15.8,41.4,47.3c55.2,17.8,100.6,31.6,104.5,31.6C4396.6,4628.6,4398.6,4622.7,4398.6,4614.8z M5887.3,4543.8c98.6-31.5,248.4-92.7,335.2-136.1c155.8-78.9,479.1-289.8,522.5-339.1c15.8-21.7-9.9-51.3-122.3-134.1c-78.9-59.2-185.3-132.1-236.6-161.7l-90.7-53.2l-61.1,114.4c-98.6,181.4-301.7,455.5-473.2,631C5585.6,4648.3,5581.7,4646.4,5887.3,4543.8z M4852.1,3987.8v-581.7h-76.9c-153.8,0-662.5,114.4-757.2,171.6c-7.9,3.9-2,31.5,11.8,57.2c21.7,43.4,41.4,51.3,134.1,55.2c132.1,5.9,203.1,43.4,307.6,155.8c116.3,126.2,151.8,266.2,96.6,396.3c-27.6,65.1-25.6,67,43.4,134.1c73,67.1,224.8,193.2,234.7,193.2C4850.1,4569.5,4852.1,4307.2,4852.1,3987.8z M5459.4,4323c90.7-86.7,211-212.9,264.2-282c128.2-159.7,297.7-441.7,278-459.4c-55.2-51.3-591.5-175.5-757.2-175.5h-76.9v583.7v581.7l65.1-45.4C5266.2,4502.5,5370.7,4409.8,5459.4,4323z M3797.2,4360.5c-96.6-143.9-104.5-325.4-19.7-447.6c23.7-33.5,21.7-49.3-11.8-116.3l-39.4-76.9l-92.7,53.2c-51.3,29.6-157.7,102.5-238.6,163.7L3249,4045l67,55.2c110.4,94.6,481.1,325.4,524.5,331.3C3842.5,4431.5,3822.8,4399.9,3797.2,4360.5z M4236.9,4222.4c29.6-19.7,43.4-49.3,43.4-96.6c0-84.8-43.4-128.2-128.2-128.2s-128.2,43.4-128.2,128.2c0,73,55.2,128.2,128.2,128.2C4173.8,4254,4213.2,4240.2,4236.9,4222.4z M3150.4,3729.5c61.1-49.3,185.4-134.1,276.1-189.3c90.7-55.2,163.7-106.5,163.7-112.4c0-5.9-17.7-57.2-39.4-112.4c-88.7-238.6-187.3-741.4-201.1-1033.2l-5.9-108.5l-508.7-5.9l-510.7-3.9l13.8,102.5c71,573.8,240.6,999.7,567.9,1419.7c57.2,73,110.4,134.1,118.3,134.1C3034.1,3820.2,3091.3,3778.8,3150.4,3729.5z M7050.7,3766.9c92.7-104.5,282-392.4,360.8-548.2c136.1-274.1,224.8-583.7,270.1-952.4l13.8-102.5l-510.7,3.9l-508.7,5.9l-5.9,65.1c-5.9,57.2,5.9,76.9,74.9,136.1c104.5,90.7,161.7,205.1,161.7,323.4c0,179.4-134.1,364.8-303.7,416c-67,19.7-76.9,31.5-116.3,151.8c-23.7,71-47.3,140-51.3,151.8c-3.9,11.8,67.1,65.1,155.8,122.2c90.7,55.2,212.9,140,272.1,189.3c59.2,47.3,116.3,88.7,124.2,88.7C6995.5,3820.2,7025.1,3796.5,7050.7,3766.9z M4093,3232.6c209-71,423.9-116.3,619.2-134.1l140-13.8v-459.4v-461.4h-601.4h-603.4l13.8,153.8c31.6,380.6,179.4,1003.7,232.7,982C3905.6,3293.7,3996.3,3264.1,4093,3232.6z M6191,3165.5l37.5-110.4l-57.2-55.2c-207-197.2-163.7-506.8,92.7-670.4c80.9-53.2,106.5-78.9,106.5-116.3v-49.3H5769h-601.4v459.4v459.5l203.1,23.6c207,23.7,481.1,90.7,654.6,157.7c55.2,19.7,104.5,31.6,112.4,25.7C6145.6,3281.9,6169.3,3226.7,6191,3165.5z M6567.6,2794.8c84.8-84.8,25.6-216.9-96.6-216.9c-39.4,0-82.8,9.9-96.6,23.7c-33.5,33.5-29.6,165.6,7.9,201.1C6425.6,2846.1,6520.3,2842.2,6567.6,2794.8z M3341.7,1816.8c5.9-17.8,11.8-71,11.8-120.3c0-218.9,106.5-755.2,201.1-1005.6c39.4-106.5,39.4-114.4,5.9-134.1c-130.1-76.9-349-224.8-425.9-287.9c-51.3-43.4-98.6-76.9-104.5-76.9c-43.4,0-311.6,382.5-422,601.4c-136.1,274.1-224.8,583.7-270.1,952.4l-13.8,102.5H2827C3266.8,1848.3,3331.8,1844.4,3341.7,1816.8z M4852.1,1385c0-254.4-5.9-463.4-11.8-463.4c-5.9,0-59.2,43.4-118.3,96.6c-175.5,161.7-353,175.5-534.4,43.4c-84.8-61.1-151.8-155.8-173.5-244.5c-13.8-55.2-61.1-92.7-116.3-92.7c-53.2,0-189.3,504.8-216.9,808.5c-7.9,71-17.7,169.6-23.7,222.8l-11.8,92.7h603.4h603.4V1385z M6358.6,1716.2c-29.6-335.2-116.3-759.2-193.3-940.5l-27.6-69l-104.5,39.4c-181.4,69-453.5,136-662.5,159.7l-203.1,23.7v459.4v459.4H5769h603.4L6358.6,1716.2z M7681.7,1745.8c-45.4-368.7-134.1-678.3-270.1-952.4c-92.7-183.4-283.9-469.3-368.7-550.1l-59.2-57.2L6889,265c-78.9,67.1-297.7,214.9-429.8,291.8c-33.5,19.7-33.5,27.6,5.9,134.1c100.6,266.2,201.1,786.8,201.1,1037.2v120.3h514.6h514.7L7681.7,1745.8z M4524.8,811.2c45.4-45.3,41.4-179.4-5.9-205.1c-104.5-55.2-218.9,4-218.9,112.4C4300,821,4453.8,884.1,4524.8,811.2z M5504.8,574.6c167.6-31.6,469.3-118.3,496.9-143.9c19.7-17.8-149.8-299.7-278-459.5c-106.5-134.1-388.5-412.1-491-485.1l-65.1-45.4V22.4v583.7h86.8C5301.7,606.1,5414.1,592.3,5504.8,574.6z M4852.1,2.7v-562l-63.1,45.4c-104.5,73-386.5,351-493,485.1c-55.2,69-143.9,197.2-197.2,285.9c-92.7,155.8-94.6,161.7-55.2,179.5c31.6,13.8,51.3,7.9,94.6-33.5c71-69,214.9-132.1,299.7-132.1c37.5,0,104.5,17.8,149.9,37.5c86.8,39.4,216.9,161.7,234.6,220.8c7.9,21.7,15.8,37.5,21.7,37.5C4848.2,566.7,4852.1,312.3,4852.1,2.7z M3811,138.8c128.2-218.9,301.7-445.6,469.3-613.2c126.2-126.2,138-142,86.8-130.1c-145.9,35.5-425.9,138-569.9,209c-155.8,78.9-479.2,289.9-522.5,341.1c-17.7,19.7,3.9,45.3,94.6,114.3c88.7,69,335.2,230.7,351,230.7C3722.3,290.6,3763.7,221.6,3811,138.8z M6622.8,79.6c110.4-84.8,138-114.3,120.3-136c-41.4-49.3-364.8-260.3-520.6-339.2c-143.9-71-423.9-173.5-569.9-209c-51.3-11.8-41.4,2,86.8,130.1c167.6,167.6,343.1,396.3,469.3,613.2l88.7,151.8l90.7-51.3C6437.5,209.8,6543.9,138.8,6622.8,79.6z"/><path d="M869,1424.4c-110.4-35.5-244.5-147.9-295.8-244.5c-23.7-47.3-59.2-224.8-96.6-487C443.1,466.1,344.5-74.2,257.7-508L100-1294.7v-487c0-461.4,2-498.9,59.2-776.9c31.6-159.7,59.2-299.7,59.2-309.6c0-7.9-25.6-15.8-59.2-15.8H100v-946.5V-4777h1104.2h1104.2v946.5v946.5h-78.9h-78.9v498.8v496.9l-71,106.5l-71,104.5l274.1,278c319.4,323.4,351,380.6,337.2,601.4c-9.9,183.4-82.8,305.6-222.8,378.6l-98.6,49.3v169.6c0,153.8-5.9,177.5-59.2,264.2c-43.4,71-88.7,112.4-157.7,147.9l-98.6,49.3l5.9,147.9c5.9,132.1,2,159.7-49.3,256.3c-73,138-195.2,218.9-351,232.7c-106.5,7.9-108.4,9.9-108.4,71c-2,147.9-116.3,341.1-248.5,418C1129.3,1448.1,985.4,1461.9,869,1424.4z M1113.5,1097.1c65.1-51.3,65.1-71-7.9-579.7c-31.6-224.8-59.2-477.2-59.2-560v-151.8l-102.5-27.6c-132.1-33.5-309.6-201.2-347-327.3c-15.8-55.2-23.7-264.2-23.7-656.6v-573.8H731h157.7v591.5c0,565.9,2,593.5,39.4,631c53.2,53.2,183.4,53.2,236.6,0c35.5-35.5,39.4-65.1,39.4-256.3v-216.9l315.5-473.2l315.5-473.2v-453.5V-2884h-646.8H541.7l-63.1,321.4c-61.1,307.6-63.1,343.1-63.1,784.8v463.4L563.4-577c82.8,406.2,179.4,942.5,214.9,1189c49.3,331.3,76.9,459.5,102.5,489C926.2,1152.3,1044.5,1150.3,1113.5,1097.1z M1653.8,533.1c53.2-55.2,63.1-78.9,53.2-120.3c-13.8-61.1-331.3-390.4-343.1-356.9c-3.9,11.8,9.9,138,27.6,278c31.6,222.8,41.4,258.3,76.9,272.1C1529.6,631.7,1580.8,610,1653.8,533.1z M1969.3-97.9c53.2-55.2,63.1-78.9,53.2-120.3c-5.9-31.5-114.4-155.8-258.3-299.7l-244.5-246.5v71c0,84.8-31.5,185.4-80.8,256.3l-35.5,51.3l181.4,177.5c100.6,98.6,195.2,183.4,211,189.3C1847-1.2,1902.3-24.9,1969.3-97.9z M2276.9-715c39.4-39.4,57.2-76.9,57.2-118.3c0-53.3-35.5-98.6-252.4-315.5l-254.4-254.4l-98.6,147.9l-96.6,147.9L1847-890.5c118.3,120.3,232.7,226.8,254.4,234.7C2156.6-632.2,2209.9-650,2276.9-715z M1993-3830.5v-631h-788.7H415.5v631v631h788.7H1993V-3830.5z"/><path d="M8870.7,1434.3c-185.3-55.2-347-272.1-351-465.3c0-61.1-2-63.1-108.4-71c-155.8-13.8-278-94.6-351-232.7c-51.3-96.6-55.2-124.2-49.3-256.3l5.9-147.9l-98.6-49.3c-69-35.5-114.4-76.9-157.7-147.9c-53.2-86.8-59.2-110.4-59.2-264.2v-169.6l-98.6-49.3c-140-73-212.9-195.2-222.8-378.6c-13.8-220.8,17.7-278,337.2-601.4l274.1-278l-71-104.5l-71-106.5v-496.9V-2884h-78.9h-78.9v-946.5V-4777h1104.2H9900v946.5v946.5h-59.2c-31.5,0-59.2,7.9-59.2,15.8c0,9.9,27.6,149.9,59.2,309.6c57.2,278,59.2,315.5,59.2,776.9v487L9742.3-508c-86.8,433.8-185.4,974.1-218.9,1200.8c-37.5,262.2-73,439.7-96.6,487C9328.2,1371.2,9062,1491.5,8870.7,1434.3z M9121.1,1099.1c25.6-27.6,51.3-151.8,100.6-487c35.5-246.5,132.1-782.8,214.9-1189l147.9-737.5v-463.4c0-441.7-2-477.2-63.1-784.8l-63.1-321.4h-646.8h-646.8v453.5v451.5l315.5,475.2l315.5,473.2v216.9c0,191.3,4,220.8,39.4,256.3c53.2,53.2,183.4,53.2,236.6,0c37.5-37.5,39.4-65.1,39.4-631v-591.5H9269h157.7v573.8c0,392.4-7.9,601.4-23.7,656.6c-37.5,126.2-214.9,293.8-347,327.3l-102.5,27.6v151.8c0,82.8-25.6,335.2-59.2,560c-73,508.7-73,528.4-7.9,579.7C8955.5,1150.3,9073.8,1152.3,9121.1,1099.1z M8525.6,608.1c43.4-17.8,49.3-37.5,82.8-274.1c17.8-140,31.5-266.2,27.6-278c-3.9-11.8-82.8,53.2-173.5,143.9c-136,136-165.6,177.5-165.6,226.8c0,78.9,74.9,161.7,177.5,197.2C8476.3,625.8,8500,617.9,8525.6,608.1z M8415.2-208.3l181.4-177.5l-35.5-51.3c-49.3-71-80.8-171.6-80.8-256.3v-71l-250.4,250.4c-211,211-248.4,258.3-248.4,309.6c0,100.6,124.2,209,212.9,185.3C8216-24.9,8314.6-109.7,8415.2-208.3z M8143.1-882.6l226.8-224.8l-98.6-147.9l-98.6-147.9l-254.4,254.4c-214.9,214.9-252.4,262.2-252.4,313.5c0,100.6,124.2,209,213,185.3C7900.6-655.8,8018.9-760.4,8143.1-882.6z M9584.5-3830.5v-631h-788.7H8007v631v631h788.7h788.7V-3830.5z"/></g></g>
</svg>