<?xml version="1.0" encoding="utf-8"?>
<!-- Svg Vector Icons : http://www.sfont.cn -->
<!DOCTYPE svg PUBLIC "-//W3C//DTD SVG 1.1//EN" "http://www.w3.org/Graphics/SVG/1.1/DTD/svg11.dtd">
<svg version="1.1" xmlns="http://www.w3.org/2000/svg" xmlns:xlink="http://www.w3.org/1999/xlink" x="0px" y="0px" viewBox="0 0 1000 1000" enable-background="new 0 0 1000 1000" xml:space="preserve">
<metadata> Svg Vector Icons : http://www.sfont.cn </metadata>
<g><g transform="translate(0.000000,433.000000) scale(0.100000,-0.100000)"><path d="M4202.7,3458.4c-65.1-17.2-191.5-134.1-838.8-779.4c-419.4-417.5-775.6-781.3-790.9-810.1c-42.1-78.5-53.6-206.8-26.8-302.6c19.2-72.8,61.3-124.5,254.7-317.9c197.3-195.3,247.1-235.5,323.7-256.6c97.7-24.9,224.1-15.3,300.7,26.8c74.7,42.1,1478.4,1432.5,1535.9,1522.5c68.9,105.3,86.2,226,53.6,342.8c-19.2,72.8-61.3,128.3-226,298.7c-111.1,113-233.6,222.1-270,241.3C4430.6,3469.9,4298.5,3483.3,4202.7,3458.4z"/><path d="M4415.3,1568.3c-662.6-662.6-760.3-767.9-743-798.6c11.5-21.1,90-103.4,174.3-183.8c86.2-82.3,155.1-164.7,155.1-181.9c0-44-2889.8-2935.8-2931.9-2935.8c-17.2,0-63.2,13.4-103.4,30.6c-49.8,19.2-97.7,24.9-151.3,17.2c-68.9-11.5-113-47.9-386.8-323.7c-452-451.9-455.8-417.5,105.3-976.7l400.2-400.2l107.2-9.6c139.8-11.5,172.4,9.6,492.2,335.1c302.6,304.5,333.2,363.9,277.7,509.4c-17.2,44-30.6,93.8-30.6,109.2c0,44,2895.6,2930,2937.7,2930c19.2,0,114.9-76.6,210.7-172.4c97.7-93.8,183.8-172.4,193.4-172.4c30.7,0,1541.6,1520.5,1541.6,1551.2c0,46-1401.8,1436.3-1445.9,1436.3C5192.8,2332.4,4907.5,2062.3,4415.3,1568.3z"/><path d="M7008.3,706.5c-36.4-7.7-88.1-24.9-114.9-38.3C6816.8,628,5380.5-810.2,5340.3-888.8c-49.8-95.8-49.8-279.6,0-375.3c19.1-38.3,130.2-160.9,243.2-271.9c212.6-204.9,285.3-249,419.4-249c164.7,0,174.3,7.6,965.2,792.8c503.7,499.8,764.1,773.7,789,825.4c46,97.7,46,247,0,344.7c-40.2,86.2-427.1,476.8-499.8,503.7C7178.7,710.3,7079.1,719.9,7008.3,706.5z"/><path d="M5139.2-3468.3c-68.9-42.1-122.6-143.6-122.6-237.5c0-72.8-59.4-172.4-139.8-231.7c-44.1-32.6-90-40.2-300.7-49.8c-227.9-9.6-249-13.4-298.8-57.5c-80.4-74.7-103.4-153.2-103.4-348.5c1.9-233.6,40.2-325.6,157-379.2c80.4-36.4,147.5-38.3,2706-38.3c2518.3,0,2627.4,1.9,2702.1,36.4c114.9,51.7,160.9,157,160.9,367.7c0,201.1-23,281.5-95.7,352.4c-57.5,55.5-67,57.5-302.6,67c-258.5,13.4-289.2,21.1-373.4,111.1c-40.2,42.1-57.5,84.3-70.9,172.4c-7.7,63.2-30.6,137.9-49.8,164.7c-72.8,113,21.1,107.3-1974.4,107.3C5271.3-3431.9,5196.7-3433.8,5139.2-3468.3z"/></g></g>
</svg>