<?xml version="1.0" encoding="utf-8"?>
<!-- Svg Vector Icons : http://www.sfont.cn -->
<!DOCTYPE svg PUBLIC "-//W3C//DTD SVG 1.1//EN" "http://www.w3.org/Graphics/SVG/1.1/DTD/svg11.dtd">
<svg version="1.1" xmlns="http://www.w3.org/2000/svg" xmlns:xlink="http://www.w3.org/1999/xlink" x="0px" y="0px" viewBox="0 0 1000 1000" enable-background="new 0 0 1000 1000" xml:space="preserve">
<metadata> Svg Vector Icons : http://www.sfont.cn </metadata>
<g><g transform="translate(0.000000,511.000000) scale(0.100000,-0.100000)"><path d="M3124.3,4999.8c-472.7-40.7-709-313.8-552.1-631.5c69.7-139.5,236.3-302.2,629.6-614.1c538.5-428.1,678-594.7,678-802c0-141.4-77.5-242.1-356.4-464.9c-131.7-102.7-375.8-298.3-546.3-432c-583.1-463-972.5-848.5-1323.1-1315.3C1088.3-9.7,772.5-836.9,683.4-1788.1c-25.2-271.2-25.2-980.2,0-1356c77.5-1137.1,327.4-1501.3,1113.9-1619.5c224.7-34.9,1030.6-34.9,2247.1-1.9c732.2,21.3,1127.4,21.3,2022.4,1.9c1216.5-25.2,1815.1-17.5,2086.3,29.1c495.9,85.2,765.2,261.5,937.6,619.9c143.4,296.4,201.5,631.5,234.4,1332.8c40.7,858.2-38.8,1540.1-251.8,2152.2c-257.6,745.8-631.5,1334.7-1239.8,1958.5c-321.6,327.4-548.2,525-1094.5,949.2c-455.2,354.5-581.2,476.6-612.1,596.7c-60,222.8,81.4,408.7,668.3,877.5c495.9,397.1,643.1,557.9,678,747.8c32.9,176.3-98.8,362.2-310,441.7c-199.5,75.5-577.3,87.2-920.2,29.1c-288.6-48.4-778.8-205.4-1088.7-350.6l-149.2-69.7l-248,108.5c-435.9,187.9-889.2,311.9-1220.4,335.1c-83.3,5.8-172.4,11.6-199.5,15.5C3310.2,5011.4,3215.3,5007.6,3124.3,4999.8z M4803.8,1505.1c116.2-34.9,224.7-143.3,255.7-255.7c11.6-40.7,21.3-131.7,21.3-203.4V918.2l480.4-7.8c530.8-5.8,544.4-9.7,658.6-139.5c58.1-67.8,100.7-174.3,100.7-255.7c0-122-98.8-279-213.1-337.1c-69.7-34.9-114.3-38.7-552.1-38.7h-474.6V-401v-538.6l209.2-11.6c331.3-17.4,552.1-104.6,740-290.6c116.2-116.2,176.3-211.2,236.3-373.9c36.8-102.7,42.6-162.7,48.4-579.2c11.6-650.9-31-827.2-257.6-1073.2C5865.4-3475.4,5600-3580,5270.7-3580h-189.8v-143.4c0-224.7-67.8-364.2-213.1-437.8c-83.3-42.6-236.3-50.4-323.5-17.4c-60,21.3-170.5,120.1-205.3,182.1c-11.6,21.3-27.1,122-32.9,222.8l-9.7,184l-494,9.7c-331.3,5.8-507.5,17.5-534.7,32.9c-75.5,42.6-180.2,176.3-193.7,248c-32.9,184,42.6,362.3,191.8,439.7c77.5,42.6,106.5,44.6,561.8,50.4l478.5,5.8l-3.9,536.6l-5.8,536.6l-232.5,11.6c-166.6,7.7-265.4,23.2-344.8,52.3c-327.4,118.2-538.5,344.8-623.8,664.5c-44.6,160.8-38.7,1028.6,5.8,1201c83.3,319.6,327.4,557.9,681.9,664.5c58.1,19.4,199.5,38.7,315.8,44.6l207.3,11.6v155c0,240.2,75.5,364.2,269.3,432C4666.3,1540,4687.6,1540,4803.8,1505.1z"/><path d="M3996,120c-36.8-9.7-87.2-38.8-110.4-67.8C3843,3.8,3841-9.7,3841-412.7c0-410.7,0-414.5,46.5-468.8c44.6-50.4,56.2-54.2,232.5-60l186-7.8l-3.9,540.5l-5.8,538.5l-116.2,3.9C4116.1,135.5,4032.8,129.7,3996,120z"/><path d="M5080.8-2260.7v-544.4h164.7c153,0,168.5,3.9,226.7,56.2l63.9,56.2l5.8,375.8c3.9,232.5,0,401-13.6,443.6c-31,102.7-94.9,135.6-284.8,149.1l-162.7,9.7V-2260.7z"/></g></g>
</svg>