<?xml version="1.0" encoding="utf-8"?>
<!-- Svg Vector Icons : http://www.sfont.cn -->
<!DOCTYPE svg PUBLIC "-//W3C//DTD SVG 1.1//EN" "http://www.w3.org/Graphics/SVG/1.1/DTD/svg11.dtd">
<svg version="1.1" xmlns="http://www.w3.org/2000/svg" xmlns:xlink="http://www.w3.org/1999/xlink" x="0px" y="0px" viewBox="0 0 1000 1000" enable-background="new 0 0 1000 1000" xml:space="preserve">
<metadata> Svg Vector Icons : http://www.sfont.cn </metadata>
<g><g transform="translate(0.000000,511.000000) scale(0.100000,-0.100000)"><path d="M458,2907.4c-172.5-9.6-189.7-13.4-245.3-67.1C90,2723.4,93.9,2562.4,224.2,2447.4l67.1-57.5l4724.4,3.8l4726.2,5.7l65.2,70.9c57.5,65.2,65.2,84.3,65.2,180.2c0,99.7-5.8,113.1-74.8,182.1c-63.3,63.2-86.2,74.7-157.1,76.7C9193.8,2915,597.9,2915,458,2907.4z"/><path d="M279.8,1845.6c-78.6-34.5-159.1-132.2-172.5-208.9c-5.7-34.5-9.6-749.4-5.7-1588.8c5.7-1517.9,5.7-1527.5,46-1581.2c128.4-170.6,381.4-166.7,488.7,5.7c34.5,57.5,36.4,105.4,36.4,1107.8c0,575,5.7,1046.5,15.3,1046.5c7.7,0,354.6-492.6,770.5-1094.4c415.9-601.8,778.1-1111.6,803-1130.8c138-109.2,333.5-74.7,429.3,78.6l42.2,67.1V99.6c0,1523.7,0,1554.3-38.3,1619.5c-23,40.2-74.7,86.2-124.6,111.2c-139.9,72.8-270.2,36.4-371.8-99.7c-38.3-51.8-40.3-80.5-49.8-1111.6l-9.6-1058L1372.2,670.7c-421.7,611.4-789.6,1128.9-816.5,1149.9C490.6,1868.6,354.5,1880.1,279.8,1845.6z"/><path d="M5970.1,1837.9c-99.7-47.9-161-143.7-161-254.9c0-63.2,638.2-2253.9,883.5-3041.6c67.1-208.9,337.3-272.2,490.6-115c57.5,59.4,86.3,149.5,364.2,1132.7c164.8,586.5,304.7,1067.5,310.5,1067.5c7.6,0,139.9-463.8,297.1-1031.1c157.1-565.4,304.7-1063.7,325.8-1104c99.6-187.8,366.1-203.2,492.5-30.7c19.2,26.8,239.6,730.2,486.8,1562c481,1608,481,1602.3,398.6,1713.4c-97.7,130.3-237.6,166.7-377.5,99.7c-63.3-32.6-95.8-63.3-124.6-122.7c-21.1-44.1-168.7-553.9-329.6-1130.8c-203.2-728.3-299-1040.7-308.6-1015.8c-9.6,19.2-145.7,507.9-302.8,1086.7c-157.2,576.9-299,1071.4-316.2,1098.2c-36.4,55.6-168.7,118.8-245.3,120.7c-78.6,0-172.5-44.1-224.2-107.3c-38.3-44.1-111.2-291.3-343.1-1144.2c-162.9-598-302.8-1077.1-310.5-1063.7c-7.7,13.4-143.8,494.5-304.7,1069.4c-161,575-304.7,1069.4-323.9,1100.1C6274.8,1857.1,6113.8,1905,5970.1,1837.9z"/><path d="M3490,1791.9c-63.2-32.6-97.7-67.1-128.4-130.3l-44.1-84.3V118.7c0-896.9,7.7-1483.4,19.2-1523.7c9.6-38.3,49.8-97.8,86.2-134.2l69-67.1h958.3h960.2l65.2,70.9c57.5,63.2,65.2,84.3,65.2,178.2c0,93.9-7.7,115-65.2,178.2l-65.2,70.9l-739.8,5.8l-739.8,5.7v477.2V-140h527.1h525.1l65.2,57.5C5167,21,5186.2,157.1,5098,270.2c-80.5,103.5-107.3,107.3-659.3,107.3h-507.9v460v460h670.8c745.5,0,772.4,3.8,843.3,118.8c49.8,82.4,49.8,212.7,0,293.2c-76.7,124.6-76.7,124.6-1019.6,124.6C3582,1834.1,3574.4,1834.1,3490,1791.9z"/><path d="M212.7-2244.4c-95.8-95.8-115-184-59.4-295.2c21.1-46,67.1-99.7,99.7-118.8c59.4-34.5,203.2-36.4,4720.5-34.5c2562.5,0,4680.3,1.9,4705.2,1.9c24.9,1.9,76.7,34.5,120.7,78.6c76.7,74.7,76.7,78.6,69,193.6c-7.6,97.8-17.2,124.6-69,176.3l-61.3,61.3l-4726.3,5.7l-4726.3,3.8L212.7-2244.4z"/></g></g>
</svg>