<?xml version="1.0" encoding="utf-8"?>
<!-- Svg Vector Icons : http://www.sfont.cn -->
<!DOCTYPE svg PUBLIC "-//W3C//DTD SVG 1.1//EN" "http://www.w3.org/Graphics/SVG/1.1/DTD/svg11.dtd">
<svg version="1.1" xmlns="http://www.w3.org/2000/svg" xmlns:xlink="http://www.w3.org/1999/xlink" x="0px" y="0px" viewBox="0 0 1000 1000" enable-background="new 0 0 1000 1000" xml:space="preserve">
<metadata> Svg Vector Icons : http://www.sfont.cn </metadata>
<g><g><path d="M655.9,326.8l69.3,69.3L448.1,673.2L274.8,500l69.3-69.3L448,534.6L655.9,326.8z M990,206v588c0,107.8-88.2,196-196,196H206C98.2,990,10,901.8,10,794V206C10,98.2,98.2,10,206,10h588C901.8,10,990,98.2,990,206z M867.5,500c0-203-164.5-367.5-367.5-367.5C297,132.5,132.5,297,132.5,500c0,203,164.5,367.5,367.5,367.5C703,867.5,867.5,703,867.5,500z"/></g><g></g><g></g><g></g><g></g><g></g><g></g><g></g><g></g><g></g><g></g><g></g><g></g><g></g><g></g><g></g></g>
</svg>