<?xml version="1.0" encoding="utf-8"?>
<!-- Svg Vector Icons : http://www.sfont.cn -->
<!DOCTYPE svg PUBLIC "-//W3C//DTD SVG 1.1//EN" "http://www.w3.org/Graphics/SVG/1.1/DTD/svg11.dtd">
<svg version="1.1" xmlns="http://www.w3.org/2000/svg" xmlns:xlink="http://www.w3.org/1999/xlink" x="0px" y="0px" viewBox="0 0 1000 1000" enable-background="new 0 0 1000 1000" xml:space="preserve">
<metadata> Svg Vector Icons : http://www.sfont.cn </metadata>
<g><g transform="translate(0.000000,511.000000) scale(0.100000,-0.100000)"><path d="M8852.2,3793.5C8457.9,3682.6,7675.6,3467,7117.1,3311c-558.5-154-1566.7-433.3-2238.2-620.1C1831.8,1846.9,688.1,1530.7,466.3,1471.2c-133.5-37-191-63.7-250.5-121.1c-102.7-96.5-137.6-215.6-102.7-345c47.2-178.6,55.4-184.8,1305.9-712.5C2388.2-118.1,2577.1-190,2620.3-175.6c28.7,10.3,431.2,230,893.2,488.7c6098.5,3394.2,5706.3,3176.5,5657,3125.2c-16.4-16.4-234.1-197.1-482.5-398.4s-1032.8-841.9-1745.4-1423C6232.1,1035.8,5277.3,257.6,4821.5-114c-455.8-371.7-825.5-677.6-821.3-681.7c26.7-22.6,3843.9-1622.1,3905.5-1636.5c158.1-34.9,371.7,71.9,453.8,227.9c14.4,28.7,258.7,954.8,544.1,2055.4c283.4,1100.6,628.3,2431.2,763.9,2954.8c162.2,628.3,240.2,969.2,232,1004.1c-6.2,28.8-43.1,82.1-82.1,121.2c-57.5,57.5-82.1,67.8-156.1,65.7C9611.9,3996.8,9248.5,3904.4,8852.2,3793.5z"/><path d="M1885.2-292.7c4.1-10.3,334.7-759.7,735.1-1665.3c556.5-1258.7,745.4-1663.2,794.6-1714.5c133.5-135.5,345-139.6,482.5-10.3c112.9,106.8,1515.4,1899.3,1499,1915.8c-24.6,22.6-1443.5,616-1453.8,607.8c-4.1-6.2-80.1-445.6-166.3-977.4c-88.3-533.9-164.3-969.2-170.4-969.2c-6.2,0-254.6,570.8-552.3,1269c-295.7,696.1-550.3,1277.2-562.6,1291.6C2458.1-512.4,1876.9-270.1,1885.2-292.7z"/></g></g>
</svg>