<?xml version="1.0" encoding="utf-8"?>
<!-- Svg Vector Icons : http://www.sfont.cn -->
<!DOCTYPE svg PUBLIC "-//W3C//DTD SVG 1.1//EN" "http://www.w3.org/Graphics/SVG/1.1/DTD/svg11.dtd">
<svg version="1.1" xmlns="http://www.w3.org/2000/svg" xmlns:xlink="http://www.w3.org/1999/xlink" x="0px" y="0px" viewBox="0 0 1000 1000" enable-background="new 0 0 1000 1000" xml:space="preserve">
<metadata> Svg Vector Icons : http://www.sfont.cn </metadata>
<g><g transform="translate(0.000000,511.000000) scale(0.100000,-0.100000)"><path d="M6954.1,4625.2c-355.8-76.3-654.5-203.3-984.9-419.4c-207.6-135.6-466-391.8-3446.1-3395.3C1489.5-231.6,602-1138.1,553.3-1201.7C241.9-1606.2,100-1995.9,100-2451.3c-2.1-529.5,213.9-999.7,654.5-1433.9c597.3-584.6,1273-715.9,1929.6-374.9c99.6,52.9,249.9,144,330.4,205.5C3192.4-3923.3,6890.5-242.2,7079.1-9.2c256.3,319.8,362.2,607.9,347.4,946.8c-16.9,343.1-137.7,593.1-430,881.1c-525.3,523.2-1175.5,544.3-1794,59.3c-67.8-52.9-495.6-482.9-953.1-955.2C3791.8,450.4,3069.6-295.1,2645.9-731.4c-423.6-436.3-787.9-823.9-809.1-859.9c-57.2-91.1-52.9-239.3,8.5-328.3c89-135.6,266.9-190.6,413-129.2c33.9,14.8,781.6,771,1664.8,1683.9c885.3,912.9,1652.1,1694.4,1705,1734.7c353.7,269,624.8,260.5,912.9-27.5c67.8-67.8,148.3-175.8,180-241.5c110.1-226.6,46.6-459.6-209.7-756.2c-74.1-86.8-963.7-982.8-1974-1991C2576-3601.4,2531.6-3641.6,2230.8-3741.2c-211.8-69.9-423.6-55.1-629.1,48.7c-389.7,192.8-749.8,643.9-823.9,1027.3c-55.1,288,10.6,610,186.4,902.3c86.8,146.2,311.4,377,2749.2,2829.7c2463.3,2480.3,2469.7,2486.6,2605.2,2577.7c188.5,127.1,408.8,230.9,618.5,296.5c163.1,48.7,224.5,57.2,482.9,57.2c247.8,2.1,324.1-6.4,461.7-46.6c502-144,938.3-508.3,1177.7-982.8c141.9-279.6,180-459.6,165.2-787.9c-8.5-199.1-23.3-296.5-67.8-436.3C9025.5,1340,8890,1147.3,8311.7,558.5C7509-257,5155.8-2648.3,4675-3137.5c-296.5-298.6-466-487.2-474.5-525.3c-23.3-89,0-235.1,44.5-298.7c48.7-65.7,190.6-139.8,269-139.8c31.8,0,89,12.7,127.1,29.7c84.7,33.9,4545.4,4562.3,4708.5,4778.3c561.3,743.4,701.1,1626.7,383.4,2393.4c-319.8,777.3-1078.1,1397.9-1872.4,1535.6C7608.6,4680.2,7193.4,4673.9,6954.1,4625.2z"/></g></g>
</svg>