<?xml version="1.0" encoding="utf-8"?>
<!-- Svg Vector Icons : http://www.sfont.cn -->
<!DOCTYPE svg PUBLIC "-//W3C//DTD SVG 1.1//EN" "http://www.w3.org/Graphics/SVG/1.1/DTD/svg11.dtd">
<svg version="1.1" xmlns="http://www.w3.org/2000/svg" xmlns:xlink="http://www.w3.org/1999/xlink" x="0px" y="0px" viewBox="0 0 1000 1000" enable-background="new 0 0 1000 1000" xml:space="preserve">
<metadata> Svg Vector Icons : http://www.sfont.cn </metadata>
<g><g transform="translate(0.000000,512.000000) scale(0.100000,-0.100000)"><path d="M3274.7,4995.7c-26.8-15.3-512.6-304.1-1076.8-642.7c-912.4-547-1030.9-623.6-1053.9-680.9c-23-55.5-26.8-585.3-23-3572.9l5.7-3509.8l55.5-57.4c49.7-51.6,273.5-130.1,1937.5-684.7L4999.9-4780l1880.2,627.4c1664,554.7,1887.8,633.1,1937.5,684.7l55.5,57.4l5.7,3509.8c3.8,3215.2,1.9,3515.5-26.8,3576.7c-26.8,57.4-164.5,145.4-1086.4,702l-1053.9,635l-1692.7,5.7C3596,5022.5,3318.7,5018.7,3274.7,4995.7z M6445.9,4544.4c38.3-95.6,118.6-143.5,214.2-126.3c36.3,5.8,80.3,23,97.6,38.3c28.7,26.8,95.6-9.6,724.9-386.3c380.6-227.6,684.7-418.9,677.1-426.5c-7.7-7.6-721.1-248.7-1585.6-535.6l-1574.1-524.1l-1572.2,524.1c-866.4,286.9-1579.9,527.9-1587.5,535.6c-7.6,7.7,296.5,198.9,677.1,426.5c629.3,376.8,696.2,413.1,724.9,386.3c95.6-86.1,262-38.3,313.7,91.8l28.7,72.7h1415.4h1415.4L6445.9,4544.4z M2370,3033.3l803.3-267.8l-5.7-233.3c-3.8-128.2-1.9-254.4,5.7-279.2c34.4-139.6,231.5-187.5,336.7-82.3c53.5,55.5,55.5,61.2,55.5,260.1c0,156.8,5.7,202.7,24.9,197c11.5-5.7,286.9-97.5,612.1-204.7l587.2-197V112.7V-1999l-49.7,38.3c-45.9,36.3-76.5,40.2-317.5,40.2h-267.8L4099-1976c-44-44-55.5-72.7-55.5-135.8c0-174.1,65-210.4,386.4-210.4c200.8,0,244.8,5.7,298.4,38.3l61.2,38.3v-1013.7c0-558.5-5.7-1013.7-13.4-1013.7c-9.6,0-700,227.6-1535.9,506.9l-1522.5,506.9l-26.8,82.2c-21,57.4-45.9,88-89.9,109l-63.1,28.7V131.8c0,1742.5,5.7,3169.3,13.4,3169.3C1560.9,3301.1,1928.1,3180.6,2370,3033.3z M8461.9,131.8v-3171.2l-63.1-28.7c-44-21-68.9-51.6-89.9-109l-26.8-82.2l-1522.5-506.9c-835.8-279.2-1526.3-506.9-1535.9-506.9c-7.7,0-13.4,455.2-13.4,1013.7v1013.7l63.1-38.3c51.7-32.5,95.6-38.3,296.5-38.3c135.8,0,254.4,9.6,277.3,21c72.7,36.3,109,97.6,109,185.5c0,66.9-11.5,93.7-55.5,139.6l-55.5,55.5h-267.8c-241,0-271.6-3.8-317.5-40.2l-49.7-38.3V112.7v2113.5l589.1,197c323.2,107.1,598.7,198.9,612.1,204.7c17.2,5.7,23-40.2,23-197c0-198.9,1.9-204.7,55.5-260.1c105.2-105.2,302.2-57.4,336.6,82.3c7.7,24.9,9.6,151.1,5.7,279.2l-5.7,233.3l793.8,265.9c436.1,147.3,805.2,267.8,818.6,267.8C8456.1,3301.1,8461.9,2654.6,8461.9,131.8z"/><path d="M3228.8,3982l-65-65v-262v-262l65-65c88-88,189.3-89.9,277.3-9.6l59.3,55.5v275.4c0,229.5-5.7,279.2-34.4,313.7C3446.8,4068.1,3322.5,4075.8,3228.8,3982z"/><path d="M6539.6,4024.1c-95.6-51.6-105.2-84.2-105.2-374.9v-275.4l59.3-55.5c88-80.3,189.4-78.4,277.3,9.6l65,65v262v262l-65,65C6702.2,4050.9,6616.1,4066.2,6539.6,4024.1z"/><path d="M3278.5,1719.3c-99.5-51.6-114.8-99.5-114.8-365.3c0-271.6,21-334.7,128.2-378.7c88-38.3,164.5-19.1,225.7,53.6c45.9,53.6,47.8,65,47.8,323.2c0,262,0,265.9-51.6,323.2C3444.9,1748,3366.5,1763.3,3278.5,1719.3z"/><path d="M3247.9,556.4c-72.7-49.7-88-122.4-80.3-390.2c5.7-239.1,7.7-252.5,55.5-300.3c30.6-30.6,78.4-53.5,128.1-59.3c70.8-9.6,86.1-3.8,147.3,57.4l66.9,66.9v271.6v271.6l-55.5,55.4c-45.9,44-72.7,55.5-139.6,55.5C3324.4,585.1,3268.9,571.7,3247.9,556.4z"/><path d="M3228.8-627.6l-65-65v-262v-262l65-65c93.7-93.7,218-86.1,302.2,19.1c28.7,34.4,34.4,84.2,34.4,313.7v275.4l-59.3,55.5C3418.1-537.7,3316.7-539.6,3228.8-627.6z"/><path d="M3228.8-1775.2c-53.5-53.6-65-78.4-65-149.2c0-76.5-5.7-86.1-68.8-120.5c-177.9-95.6-214.2-267.8-76.5-376.8c63.1-51.7,156.8-42.1,290.7,32.5c66.9,38.2,145.4,66.9,179.8,66.9c44,0,80.3,19.1,126.2,65c86.1,86.1,88,174.1,7.6,265.9c-30.6,36.3-57.4,80.3-57.4,95.6c0,57.4-45.9,132-97.5,158.8C3376-1691,3301.4-1702.5,3228.8-1775.2z"/><path d="M2421.6-2458c-89.9-34.4-407.4-235.3-436.1-273.5c-36.3-53.6-34.4-183.6,7.6-233.3c93.7-118.6,176-111,424.6,40.2c231.4,139.6,246.7,153,262,244.8C2702.8-2532.6,2555.5-2404.4,2421.6-2458z"/><path d="M6556.8,1732.7c-23-7.7-59.3-40.2-82.3-68.9c-36.3-45.9-40.1-74.6-40.1-315.6c0-252.5,1.9-265.8,47.8-319.4c61.2-72.7,137.7-91.8,225.7-53.6c107.1,44,128.1,107.1,128.1,374.9c0,265.8-21,330.9-124.3,374.9C6637.2,1755.7,6614.2,1755.7,6556.8,1732.7z"/><path d="M6489.9,529.6l-55.5-55.4V214c0-149.2,9.6-277.3,21-306c53.6-114.8,233.3-135.8,325.2-38.3c42.1,45.9,45.9,65,51.6,298.4c9.6,342.4-26.8,417-202.7,417C6562.6,585.1,6535.8,573.6,6489.9,529.6z"/><path d="M6489.9-618l-55.5-55.5V-945c0-149.2,9.6-286.9,19.1-308c26.8-47.8,118.6-93.7,193.2-93.7c42.1,0,78.4,19.1,124.3,65l65,65v262v262l-65,65C6683.1-539.6,6572.1-535.8,6489.9-618z"/><path d="M6539.6-1733.1c-57.4-30.6-105.2-95.6-105.2-147.3c0-24.9-24.9-74.6-57.4-110.9c-80.3-91.8-78.4-179.8,7.7-265.9c47.8-47.8,82.2-65,130.1-65c38.3,0,105.2-26.8,174-66.9c158.8-95.6,290.7-84.2,350,30.6c61.2,118.6,11.5,235.3-133.9,313.7c-63.1,34.4-68.9,44-68.9,120.5C6836.1-1769.4,6669.7-1660.4,6539.6-1733.1z"/><path d="M7452-2458c-132-38.3-181.7-225.7-84.2-321.3c76.5-76.5,415.1-269.7,472.4-269.7c63.1,0,124.3,30.6,166.4,84.2c42.1,49.7,44,179.8,5.7,235.3c-28.7,40.2-392.1,262-459,279.2C7532.3-2444.6,7486.4-2448.4,7452-2458z"/></g></g>
</svg>