<?xml version="1.0" encoding="utf-8"?>
<!-- Svg Vector Icons : http://www.sfont.cn -->
<!DOCTYPE svg PUBLIC "-//W3C//DTD SVG 1.1//EN" "http://www.w3.org/Graphics/SVG/1.1/DTD/svg11.dtd">
<svg version="1.1" xmlns="http://www.w3.org/2000/svg" xmlns:xlink="http://www.w3.org/1999/xlink" x="0px" y="0px" viewBox="0 0 1000 1000" enable-background="new 0 0 1000 1000" xml:space="preserve">
<metadata> Svg Vector Icons : http://www.sfont.cn </metadata>
<g><g transform="translate(0.000000,511.000000) scale(0.100000,-0.100000)"><path d="M100,110v-4000.4h4900h4900V110v4000.4H5000H100V110z M8923.8,119.6v-3033.8H5000H1076.2V119.6v3033.8H5000h3923.8V119.6z"/><path d="M3621.9,2472c-486.2-82.3-733.1-302.4-853.7-763.7c-45.9-168.4-51.7-780.9-9.6-1004.9c63.2-356,202.9-666.1,382.8-865.2l111-120.6l-1.9-325.4l-1.9-325.4l-574.2-11.5c-392.4-5.8-599.1-17.2-650.8-34.5c-204.8-67-365.6-183.7-436.4-315.8c-36.4-67-42.1-116.7-47.9-350.3l-7.7-273.7h2222.2h2222.2v241.2c0,134-9.6,275.6-23,317.7c-30.6,107.2-155,237.3-285.2,304.3c-199.1,99.5-298.6,112.9-872.8,112.9h-522.5v325.4V-292l116.8,139.7c275.6,327.3,403.9,761.8,403.9,1362.8c0,333-36.4,520.6-139.7,733.1c-128.2,262.2-336.9,432.6-610.6,497.7C3941.5,2466.2,3690.8,2483.4,3621.9,2472z"/><path d="M5976.2,2158v-153.1h976.2h976.2V2158v153.1h-976.2h-976.2V2158z"/><path d="M5976.2,1344.6v-162.7h823h825l-5.7,158.9l-5.7,157l-817.3,5.7l-819.2,3.8V1344.6z"/><path d="M5976.2,521.5V358.8h1062.3h1062.3v162.7v162.7H7038.5H5976.2V521.5z"/></g></g>
</svg>