<?xml version="1.0" encoding="utf-8"?>
<!-- Svg Vector Icons : http://www.sfont.cn -->
<!DOCTYPE svg PUBLIC "-//W3C//DTD SVG 1.1//EN" "http://www.w3.org/Graphics/SVG/1.1/DTD/svg11.dtd">
<svg version="1.1" xmlns="http://www.w3.org/2000/svg" xmlns:xlink="http://www.w3.org/1999/xlink" x="0px" y="0px" viewBox="0 0 1000 1000" enable-background="new 0 0 1000 1000" xml:space="preserve">
<metadata> Svg Vector Icons : http://www.sfont.cn </metadata>
<g><g><path d="M174.5,292.8l54.2,31.2c-21.6,41.9-34.9,88.7-34.9,139c0,168.9,137.4,306.3,306.3,306.3c168.9,0,306.3-137.4,306.3-306.3h61.3c0,203-164.6,367.5-367.5,367.5C297,830.5,132.5,666,132.5,463C132.5,401.5,147.8,343.7,174.5,292.8z M500,891.8C263.6,891.8,71.3,699.4,71.3,463c0-152.9,80.7-287,201.6-363L242.1,47C103,133.4,10,287.2,10,463c0,270.6,219.4,490,490,490s490-219.4,490-490h-61.2C928.8,699.4,736.4,891.8,500,891.8z M683.8,463c0,101.3-82.4,183.8-183.8,183.8c-101.3,0-183.8-82.4-183.8-183.8H255c0,135.3,109.7,245,245,245c135.3,0,245-109.7,245-245H683.8z"/></g><g></g><g></g><g></g><g></g><g></g><g></g><g></g><g></g><g></g><g></g><g></g><g></g><g></g><g></g><g></g></g>
</svg>