<?xml version="1.0" encoding="utf-8"?>
<!-- Svg Vector Icons : http://www.sfont.cn -->
<!DOCTYPE svg PUBLIC "-//W3C//DTD SVG 1.1//EN" "http://www.w3.org/Graphics/SVG/1.1/DTD/svg11.dtd">
<svg version="1.1" xmlns="http://www.w3.org/2000/svg" xmlns:xlink="http://www.w3.org/1999/xlink" x="0px" y="0px" viewBox="0 0 1000 1000" enable-background="new 0 0 1000 1000" xml:space="preserve">
<metadata> Svg Vector Icons : http://www.sfont.cn </metadata>
<g><g transform="translate(0.000000,511.000000) scale(0.100000,-0.100000)"><path d="M4617.1,5003.3c-1290.6-136-2304.6-622.3-3168.9-1521.1C745.3,2753.9,302.8,1848.2,141.5,820.3c-55.3-361.8-55.3-1062.5,0-1424.3c133.7-845.8,454-1599.4,981.8-2295.4c154.4-205.1,585.4-640.7,808.9-815.8c700.6-557.7,1470.4-894.2,2353.1-1032.5c361.8-55.3,1062.4-55.3,1424.3,0c1106.2,172.9,2053.4,666.1,2837,1481.9C10261.2-1486.6,10358,1338.9,8772.4,3231c-189,225.9-532.4,566.9-732.9,723.7c-659.1,520.9-1472.7,873.5-2316.2,1004.8C5497.5,4994.1,4799.2,5021.7,4617.1,5003.3z M5423.7,4026.1c871.2-101.4,1664-470.1,2288.5-1069.4c1256-1203,1583.3-3060.6,811.3-4602.4C8134-2420,7525.6-3028.4,6751.2-3417.9c-1774.6-887.3-3934-306.5-5042.6,1359.7c-412.5,617.6-652.2,1415.1-652.2,2166.4c0,1309,668.3,2551.3,1763.1,3281.8C3570.8,3890.1,4536.4,4127.5,5423.7,4026.1z"/><path d="M3522.4,1571.7l-334.2-334.2l564.6-564.6l564.6-564.6l-564.6-564.6l-564.6-564.6l341.1-338.8l338.8-341.1l564.6,564.6l564.6,564.6l564.6-564.6l564.6-564.6l338.8,341.1l341.1,338.8l-564.6,564.6l-564.6,564.6l564.6,564.6l564.6,564.6l-341.1,338.8l-338.8,341.1L5562,1352.7l-564.6-564.6l-560,560c-306.5,306.5-562.3,557.7-569.3,557.7S3706.8,1756,3522.4,1571.7z"/></g></g>
</svg>