<?xml version="1.0" encoding="utf-8"?>
<!-- Svg Vector Icons : http://www.sfont.cn -->
<!DOCTYPE svg PUBLIC "-//W3C//DTD SVG 1.1//EN" "http://www.w3.org/Graphics/SVG/1.1/DTD/svg11.dtd">
<svg version="1.1" xmlns="http://www.w3.org/2000/svg" xmlns:xlink="http://www.w3.org/1999/xlink" x="0px" y="0px" viewBox="0 0 1000 1000" enable-background="new 0 0 1000 1000" xml:space="preserve">
<metadata> Svg Vector Icons : http://www.sfont.cn </metadata>
<g><g transform="translate(0.000000,511.000000) scale(0.100000,-0.100000)"><path d="M1041.1,4986.9c-456.8-58.7-849.9-449.2-916.2-911.1c-33.2-234.8-33.2-7725.4,0-7932.1c76.6-467,433.9-829.5,895.8-903.5c216.9-35.7,7730.5-38.3,7947.4-2.5c219.5,35.7,497.7,178.7,627.8,326.7c132.7,150.6,247.6,385.4,278.2,581.9c35.7,211.8,33.2,7730.5,0,7944.9c-76.6,459.4-454.3,829.5-923.9,895.8C8761.4,5015,1252.9,5015,1041.1,4986.9z M8827.8,112.3V-3716H4999.5H1171.3V112.3v3828.2h3828.2h3828.2V112.3z"/><path d="M3366.1,1732.9l-370.1-370.1l625.3-625.3l625.3-625.3L3621.3-513l-625.3-625.3l377.7-375.2l375.2-377.7l625.3,625.3l625.3,625.3l625.3-625.3l625.3-625.3l375.2,377.7l377.7,375.2L6377.7-513l-625.3,625.3l625.3,625.3l625.3,625.3L6625.2,1738l-375.2,377.7l-625.3-625.3l-625.3-625.3l-620.2,620.2c-339.4,339.5-622.7,617.6-630.4,617.6S3570.3,1937,3366.1,1732.9z"/></g></g>
</svg>