<?xml version="1.0" encoding="utf-8"?>
<!-- Svg Vector Icons : http://www.sfont.cn -->
<!DOCTYPE svg PUBLIC "-//W3C//DTD SVG 1.1//EN" "http://www.w3.org/Graphics/SVG/1.1/DTD/svg11.dtd">
<svg version="1.1" xmlns="http://www.w3.org/2000/svg" xmlns:xlink="http://www.w3.org/1999/xlink" x="0px" y="0px" viewBox="0 0 1000 1000" enable-background="new 0 0 1000 1000" xml:space="preserve">
<metadata> Svg Vector Icons : http://www.sfont.cn </metadata>
<g><g transform="translate(0.000000,511.000000) scale(0.100000,-0.100000)"><path d="M2349.6,4946.5c-81.3-28-190.6-76.2-241.4-109.3c-53.4-33-490.4-459.9-973.1-947.7c-795.3-800.3-884.2-899.4-947.7-1046.8C57.8,2548,73.1,2199.9,228.1,1887.4c30.5-61,378.6-431.9,874-927.4c452.3-454.8,823.2-838.5,823.2-851.2c0-12.7-376-401.4-833.4-863.9c-754.6-757.1-841-853.7-904.5-1001.1C45.1-2076.3,80.7-2487.9,271.3-2775c119.4-177.9,1776-1814.1,1900.5-1877.7c332.8-167.7,724.1-167.7,1057,0c66.1,33,414.2,358.3,940.1,881.7l830.8,828.3l846.1-838.4c874-871.5,919.7-907.1,1196.7-978.2c66-15.3,213.4-25.4,327.8-17.8c170.2,7.6,243.9,27.9,386.2,94c162.6,76.2,249,152.4,1036.7,937.5c472.6,470,894.4,907.1,935,970.6c203.3,304.9,228.7,721.6,63.5,1051.9c-81.3,162.6-172.8,261.7-914.7,1006.2l-828.3,825.7l835.9,838.5c503.1,505.6,856.2,879.1,886.7,940.1c155,312.5,170.2,660.6,40.6,955.3c-63.5,147.4-152.4,243.9-947.7,1046.8c-482.8,485.3-929.9,917.2-993.4,957.9c-307.4,195.6-802.9,203.3-1117.9,20.3c-48.3-30.5-462.4-426.9-922.3-881.7l-830.9-828.3L4179,3973.4c-449.7,449.7-853.7,838.5-894.4,868.9C3053.4,4997.3,2634.2,5045.6,2349.6,4946.5z M6150.7,2809.7l1148.4,1148.4l774.9-774.9l774.9-774.9L7698,1259.8l-1148.5-1151L7698-1039.6l1150.9-1151l-762.2-762.2c-419.2-419.2-772.4-762.2-787.7-762.2c-12.7,0-536.1,510.7-1161.1,1135.7L4999.7-1441.1L3861.4-2579.3c-625-625-1148.4-1135.7-1161.1-1135.7c-15.2,0-368.4,343-787.6,762.2l-762.2,762.2l1151,1151L3449.8,108.8l-1148.4,1151l-1151,1148.4l774.9,774.9l774.9,774.9l1148.4-1148.4l1151-1151L6150.7,2809.7z"/></g></g>
</svg>