<?xml version="1.0" encoding="utf-8"?>
<!-- Svg Vector Icons : http://www.sfont.cn -->
<!DOCTYPE svg PUBLIC "-//W3C//DTD SVG 1.1//EN" "http://www.w3.org/Graphics/SVG/1.1/DTD/svg11.dtd">
<svg version="1.1" xmlns="http://www.w3.org/2000/svg" xmlns:xlink="http://www.w3.org/1999/xlink" x="0px" y="0px" viewBox="0 0 1000 1000" enable-background="new 0 0 1000 1000" xml:space="preserve">
<metadata> Svg Vector Icons : http://www.sfont.cn </metadata>
<g><g transform="translate(0.000000,511.000000) scale(0.100000,-0.100000)"><path d="M384.8,3199c-98.4-33.5-190.6-119.4-245-224.1C102.1,2899.5,100,2811.5,100,110s2.1-2789.5,39.8-2864.9c52.4-100.5,138.2-182.2,236.7-222c69.1-29.3,433.5-33.5,3287.9-33.5c3095.2,0,3212.5,2.1,3294.2,39.8C7077.9-2914,9823.4-160.2,9869.5-53.3c44,106.8,39.8,253.4-8.4,347.6c-23,44-668,703.7-1451.3,1484.8c-1210.4,1208.3-1422,1409.4-1493.2,1428.2c-58.6,16.8-1057.6,23-3267,23C1000.5,3228.3,453.9,3224.1,384.8,3199z M7722.9,1230.4L8843.3,110L7722.9-1010.4L6602.5-2130.8H3792.1H979.6V110v2240.8h2812.5h2810.4L7722.9,1230.4z"/><path d="M2774.3,993.8l-307.9-307.9l286.9-289l289-286.9l-289-289l-286.9-286.9l309.9-309.9l307.9-307.9l289,286.9l286.9,289l286.9-289l289-286.9l307.9,307.9l309.9,309.9L4566.9-179l-289,289l289,289l286.9,286.9l-309.9,309.9l-307.9,307.9l-289-286.9l-286.9-289l-289,289l-286.9,286.9L2774.3,993.8z"/></g></g>
</svg>