<?xml version="1.0" encoding="utf-8"?>
<!-- Svg Vector Icons : http://www.sfont.cn -->
<!DOCTYPE svg PUBLIC "-//W3C//DTD SVG 1.1//EN" "http://www.w3.org/Graphics/SVG/1.1/DTD/svg11.dtd">
<svg version="1.1" xmlns="http://www.w3.org/2000/svg" xmlns:xlink="http://www.w3.org/1999/xlink" x="0px" y="0px" viewBox="0 0 1000 1000" enable-background="new 0 0 1000 1000" xml:space="preserve">
<metadata> Svg Vector Icons : http://www.sfont.cn </metadata>
<g><g transform="translate(0.000000,511.000000) scale(0.100000,-0.100000)"><path d="M4634.6,5007.1c-1366.5-126.7-2534.8-732.8-3401.2-1767.4C5.2,1776.4-248.3-295.2,588.2-2018.9c486.2-997.8,1285.8-1797.4,2283.6-2283.6c2196-1066.9,4839.1-345.7,6214.8,1700.6c389.4,580.7,659,1278.9,771.9,2002.5c55.3,357.2,55.3,1064.6,0,1414.9c-142.9,917.1-511.6,1744.4-1085.4,2424.2c-792.7,942.5-1845.8,1539.3-3044,1723.6C5501,4997.8,4832.8,5025.5,4634.6,5007.1z M5429.6,4030c735.1-85.3,1477.1-391.7,2027.8-836.5c1550.8-1255.9,1935.6-3408.1,914.8-5120.2c-205.1-343.3-560-753.5-878-1011.6c-1209.8-981.7-2864.3-1166-4251.5-470.1c-419.4,209.7-730.5,437.8-1064.6,783.5c-304.2,311.1-502.3,589.9-700.5,986.3c-891.8,1779-295,3963.5,1382.6,5051.1C3623,3907.9,4547,4129.1,5429.6,4030z"/><path d="M3046.9,2069l-470.1-481.6l716.6-723.6c396.4-398.7,719-737.4,719-751.2c0-16.1-322.6-354.9-719-753.5l-719-723.6l477-477l474.7-474.7l725.9,718.9c398.7,396.3,737.4,719,751.2,719c16.1,0,352.6-322.6,751.2-719l725.9-718.9l470.1,470.1c260.4,260.4,470.1,479.3,467.8,488.5c-4.6,9.2-324.9,336.4-714.3,728.2c-391.7,391.7-709.7,723.6-709.7,739.7c0,18.4,322.6,354.9,714.3,751.2l716.6,719L6962,2043.7c-255.8,255.8-474.7,465.5-488.5,465.5c-13.8,0-343.3-315.7-732.8-702.8c-389.4-387.1-716.7-702.8-728.2-702.8s-347.9,327.2-746.6,725.9c-398.6,398.7-730.5,725.9-737.4,723.6S3305,2334,3046.9,2069z"/></g></g>
</svg>