<?xml version="1.0" encoding="utf-8"?>
<!-- Svg Vector Icons : http://www.sfont.cn -->
<!DOCTYPE svg PUBLIC "-//W3C//DTD SVG 1.1//EN" "http://www.w3.org/Graphics/SVG/1.1/DTD/svg11.dtd">
<svg version="1.1" xmlns="http://www.w3.org/2000/svg" xmlns:xlink="http://www.w3.org/1999/xlink" x="0px" y="0px" viewBox="0 0 1000 1000" enable-background="new 0 0 1000 1000" xml:space="preserve">
<metadata> Svg Vector Icons : http://www.sfont.cn </metadata>
<g><g transform="translate(0.000000,511.000000) scale(0.100000,-0.100000)"><path d="M1013.1,4984.1c-439-63.8-821.8-456.8-888.2-908.6c-33.2-232.2-33.2-7725.6,0-7929.8c30.6-194,145.5-431.3,275.6-579.3c135.3-150.6,403.3-293.5,617.6-326.7c216.9-35.7,7733.3-38.3,7947.7-2.5c467.1,76.6,832,441.5,908.6,908.6c35.7,214.4,33.2,7730.7-2.5,7947.7c-33.2,214.4-176.1,482.4-326.7,617.6c-148,130.2-385.4,245-579.3,275.6C8779.5,5017.3,1222.3,5014.8,1013.1,4984.1z M8822.9,119.6l-7.6-3823.2l-3820.7-7.7l-3823.2-5.1V111.9v3828.4h3828.4H8828L8822.9,119.6z"/><path d="M2807.3,2278.8l-520.7-536l625.3-630.4c638.1-640.6,946.9-962.2,959.6-1000.5c5.1-12.7-349.6-385.4-788.6-829.5l-798.8-806.5l525.8-525.8l525.8-525.8l816.7,809L4969-957.5l811.6-804l814.2-804l518.1,515.6c283.3,283.3,515.6,525.8,515.6,536c0,12.8-357.3,382.8-796.3,824.4l-796.3,804l714.6,719.7c393.1,395.6,752.9,763.1,801.4,816.7l86.8,94.4L7118,2268.5l-520.7,520.7l-811.6-804l-814.2-804l-819.3,819.3c-449.2,449.2-819.3,816.7-821.8,816.7C3330.5,2814.7,3093.1,2572.3,2807.3,2278.8z"/></g></g>
</svg>