<?xml version="1.0" encoding="utf-8"?>
<!-- Svg Vector Icons : http://www.sfont.cn -->
<!DOCTYPE svg PUBLIC "-//W3C//DTD SVG 1.1//EN" "http://www.w3.org/Graphics/SVG/1.1/DTD/svg11.dtd">
<svg version="1.1" xmlns="http://www.w3.org/2000/svg" xmlns:xlink="http://www.w3.org/1999/xlink" x="0px" y="0px" viewBox="0 0 1000 1000" enable-background="new 0 0 1000 1000" xml:space="preserve">
<metadata> Svg Vector Icons : http://www.sfont.cn </metadata>
<g><g transform="translate(0.000000,512.000000) scale(0.100000,-0.100000)"><path d="M4779.8,5001c-21.1-11.5-88.1-88.1-149.3-170.4c-315.9-428.8-786.9-848.1-1150.6-1024.2c-335-162.7-329.3-162.7-1554.6-162.7c-748.6,0-1091.2-5.7-1123.8-21c-82.3-36.4-90-88.1-90-559C713.5,1872.8,834.1,923.2,1102.1-13C1624.8-1831.7,2716-3359.5,4197.8-4345.4C4479.3-4533,4933-4780,4996.2-4780c49.8,0,325.5,135.9,559,277.6c1516.3,913.2,2682.2,2425.6,3262.3,4232.9c325.5,1016.6,469,2046.6,470.9,3381c0,402-11.5,474.8-74.7,507.3c-17.2,7.7-543.7,19.2-1169.7,24.9c-1125.7,9.6-1141,11.5-1273.1,55.5c-463.3,151.2-984.1,572.4-1393.7,1121.9c-61.3,84.2-132.1,162.7-155.1,176.1C5172.3,5025.9,4835.4,5027.8,4779.8,5001z M5210.6,4541.6c407.8-509.3,938.1-930.4,1374.6-1089.3c294.8-109.1,359.9-112.9,1428.2-114.9h974.5l-11.5-616.5c-15.3-834.7-70.8-1357.4-216.3-2042.7c-409.7-1916.4-1380.3-3480.5-2837.3-4573.7c-239.3-180-635.6-428.8-830.9-522.6l-91.9-44.1l-90,44.1c-310.1,147.4-880.7,536.1-1211.9,821.3C1946.4-2084.4,1017.9,161.3,1017.9,2891.3v444.2l1039.6,5.7c1146.8,7.7,1112.3,5.7,1434,139.8c419.3,178,899.8,568.6,1286.5,1049.1c141.7,176.1,153.2,185.7,222.1,185.7C5067,4715.8,5080.4,4706.2,5210.6,4541.6z"/><path d="M4933,3928.9c-21.1-11.5-68.9-63.2-105.3-118.7c-220.2-325.5-677.7-654.7-1110.4-798.3c-346.5-114.9-405.9-120.6-1282.7-128.3c-507.3-3.8-832.8-15.3-865.3-26.8c-86.1-34.5-99.5-99.6-84.2-444.2C1555.9,758.6,2017.3-660,2882.6-1889.2c346.5-492,961.1-1152.5,1399.5-1500.9c266.1-210.6,620.3-448,693-463.3c42.1-7.7,88.1,9.6,208.7,82.3c562.9,338.9,1280.8,1014.7,1776.7,1667.5C7779.8-1020,8279.5,235.9,8455.6,1658.4c15.3,128.3,38.3,421.2,49.8,649c24.9,453.7,17.2,509.2-70.8,549.5c-32.5,13.4-275.7,21.1-777.3,21.1c-790.7,0-976.4,15.3-1294.2,107.2c-461.4,134-957.2,476.7-1190.8,825.1C5084.2,3938.5,5019.1,3971.1,4933,3928.9z M5176.1,3350.8c287.2-285.3,645.2-501.6,1045.3-633.7l157-53.6V2451c0-486.3-68.9-1359.3-153.2-1948.9c-151.3-1043.4-425-2090.6-775.4-2956c-116.8-289.1-428.8-947.7-449.9-947.7c-23,0-356.1,706.5-467.1,989.8c-545.6,1382.2-853.9,2973.2-905.5,4656l-11.5,417.3l206.8,70.8c394.4,135.9,721.8,338.9,995.5,616.5c93.8,95.7,174.2,176.1,174.2,178C4994.3,3526.9,5076.6,3448.4,5176.1,3350.8z M3322.9,2271c51.7-1351.6,212.5-2450.5,520.7-3560.9c162.7-591.6,471-1432,658.6-1805.3c32.5-63.2,51.7-114.9,45.9-114.9c-32.5,0-461.4,382.9-668.1,595.4c-375.2,384.8-631.8,702.6-896,1112.3C2252.7-374.8,1867.9,862,1791.3,2318.9l-13.4,252.7l620.3,1.9c520.7,1.9,714.1,9.6,890.2,32.5C3303.8,2609.9,3313.3,2502.7,3322.9,2271z M7504.1,2577.3l712.2-9.6v-99.5c0-149.3-34.5-587.7-67-844.3C7933-81.9,7174.8-1607.7,5974.5-2760.2c-180-174.2-501.6-449.9-520.7-449.9c-5.7,0,30.6,90,84.2,201c541.8,1160.2,938.1,2737.7,1079.8,4298c24.9,289.1,67,1041.5,67,1242.5c0,80.4,1.9,82.3,53.6,68.9C6767.1,2594.6,7111.7,2583.1,7504.1,2577.3z"/><path d="M4846.8,2724.7v-153.2H5000h153.2v153.2v153.2H5000h-153.2V2724.7z"/><path d="M4846.8,2112.1v-153.2H5000h153.2v153.2v153.2H5000h-153.2V2112.1z"/><path d="M4846.8,1499.5v-153.2H5000h153.2v153.2v153.2H5000h-153.2V1499.5z"/><path d="M2396.3,2112.1v-153.2h153.2h153.2v153.2v153.2h-153.2h-153.2V2112.1z"/><path d="M2396.3,1499.5v-153.2h153.2h153.2v153.2v153.2h-153.2h-153.2V1499.5z"/><path d="M7297.4,2112.1v-153.2h153.2h153.2v153.2v153.2h-153.2h-153.2V2112.1z"/><path d="M7297.4,1499.5v-153.2h153.2h153.2v153.2v153.2h-153.2h-153.2V1499.5z"/></g></g>
</svg>