<?xml version="1.0" encoding="utf-8"?>
<!-- Svg Vector Icons : http://www.sfont.cn -->
<!DOCTYPE svg PUBLIC "-//W3C//DTD SVG 1.1//EN" "http://www.w3.org/Graphics/SVG/1.1/DTD/svg11.dtd">
<svg version="1.1" xmlns="http://www.w3.org/2000/svg" xmlns:xlink="http://www.w3.org/1999/xlink" x="0px" y="0px" viewBox="0 0 1000 1000" enable-background="new 0 0 1000 1000" xml:space="preserve">
<metadata> Svg Vector Icons : http://www.sfont.cn </metadata>
<g><g transform="translate(0.000000,512.000000) scale(0.100000,-0.100000)"><path d="M4323.9,4947.2c-78.5-40.2-300.6-185.8-492.1-319.8C2717.3,3842.4,2118,3652.8,892.4,3687.3c-241.3,7.7-455.7,7.7-474.9,0c-42.1-15.3-80.4-90-95.7-180c-5.8-36.4-21.1-752.5-34.5-1589.3C266.3,531.6,266.3,374.6,295,152.4C442.5-985,1093.5-2147.3,2202.2-3252.2c185.7-185.7,436.6-419.4,559.1-520.8C3462.2-4355.1,4140-4747.7,4502-4778.3c233.6-19.2,570.6,124.5,1062.7,455.7c137.9,91.9,270,189.6,294.9,216.4l44,47.9l-126.4,254.7c-195.3,392.5-275.8,769.8-254.7,1168.1c36.4,628.1,277.7,1150.8,733.4,1585.5c327.4,314,697,507.4,1156.6,605.1c245.1,51.7,718.1,47.9,944-7.7c206.8-51.7,247-51.7,289.1-7.7c40.2,46,116.8,384.9,145.5,649.1c32.5,310.2,19.1,3308.9-15.3,3377.8c-51.7,97.7-72.8,101.5-616.6,114.9c-664.4,17.2-936.4,65.1-1443.8,248.9c-243.2,88.1-787,361.9-1189.1,601.3c-685.5,407.9-850.2,488.3-997.7,488.3C4492.4,5020,4404.3,4987.4,4323.9,4947.2z"/><path d="M9210.6-1496.2c-28.7-13.4-360-346.6-737.2-741.1c-377.2-394.5-706.6-733.4-733.4-750.6c-28.7-19.2-86.2-34.5-128.3-34.5c-72.8,0-120.6,30.6-591.7,375.3c-281.5,206.8-536.2,383-566.8,394.5c-99.6,34.5-174.3-7.7-300.6-172.3c-61.3-80.4-122.6-166.6-134-189.6c-28.7-53.6-28.7-137.9,1.9-191.5c13.4-24.9,375.3-302.5,804.2-618.5c811.9-601.3,850.2-624.2,967-576.4c53.6,23,1867,1918.7,1913,1999.1c13.4,23,23,68.9,23,99.6c0,80.4-26.8,118.7-181.9,264.3C9371.4-1475.2,9312.1-1450.3,9210.6-1496.2z"/></g></g>
</svg>