<?xml version="1.0" encoding="utf-8"?>
<!-- Svg Vector Icons : http://www.sfont.cn -->
<!DOCTYPE svg PUBLIC "-//W3C//DTD SVG 1.1//EN" "http://www.w3.org/Graphics/SVG/1.1/DTD/svg11.dtd">
<svg version="1.1" xmlns="http://www.w3.org/2000/svg" xmlns:xlink="http://www.w3.org/1999/xlink" x="0px" y="0px" viewBox="0 0 1000 1000" enable-background="new 0 0 1000 1000" xml:space="preserve">
<metadata> Svg Vector Icons : http://www.sfont.cn </metadata>
<g><path d="M500,10c270.6,0,490,219.4,490,490S770.6,990,500,990S10,770.6,10,500C10,229.4,229.4,10,500,10z"/><path d="M399.7,531.5c-0.4,0.5-0.7,0.9-0.9,1.5l-27.3,99.9c-1.6,5.8,0,12.1,4.3,16.5c3.2,3.1,7.5,4.9,12,4.9c1.5,0,3-0.2,4.5-0.6l99.2-27.1c0.2,0,0.2,0.1,0.4,0.1c1.1,0,2.3-0.4,3.1-1.3l265.3-265.3c7.9-7.9,12.2-18.6,12.2-30.3c0-13.3-5.6-26.5-15.5-36.3l-25.1-25.1c-9.8-9.8-23.1-15.5-36.3-15.5c-11.7,0-22.4,4.3-30.3,12.2L400.1,530.5C399.8,530.8,399.9,531.2,399.7,531.5 M734.4,334.2l-26.4,26.3l-42.7-43.4l26-26c4.1-4.1,12.1-3.5,16.8,1.2l25.1,25.1c2.6,2.6,4.1,6.1,4.1,9.5C737.3,329.8,736.3,332.4,734.4,334.2 M446.9,535.6l191.5-191.5l42.7,43.4L490,578.7L446.9,535.6L446.9,535.6z M412,613.2l13.8-50.8l36.9,36.9L412,613.2L412,613.2z M751.2,439.3c-10,0-18.3,8.2-18.3,18.3V705c0,13-10.5,23.5-23.5,23.5H291c-13,0-23.5-10.5-23.5-23.5V301.3c0-13,10.6-23.5,23.5-23.5h269.5c10.1,0,18.3-8.2,18.3-18.3c0-10.1-8.2-18.3-18.3-18.3l-272.3,0c-31.6,0-57.4,25.7-57.4,57.4v409.3c0,31.6,25.7,57.3,57.4,57.3h424c31.6,0,57.4-25.7,57.4-57.3V457.6C769.5,447.5,761.3,439.3,751.2,439.3"/></g>
</svg>