<?xml version="1.0" encoding="utf-8"?>
<!-- Svg Vector Icons : http://www.sfont.cn -->
<!DOCTYPE svg PUBLIC "-//W3C//DTD SVG 1.1//EN" "http://www.w3.org/Graphics/SVG/1.1/DTD/svg11.dtd">
<svg version="1.1" xmlns="http://www.w3.org/2000/svg" xmlns:xlink="http://www.w3.org/1999/xlink" x="0px" y="0px" viewBox="0 0 1000 1000" enable-background="new 0 0 1000 1000" xml:space="preserve">
<metadata> Svg Vector Icons : http://www.sfont.cn </metadata>
<g><g transform="translate(0.000000,511.000000) scale(0.100000,-0.100000)"><path d="M1117.8,4989.1c-420.9-61.3-772-420.9-835.5-854.5c-27.5-205.2-27.5-5852.7,0-6038.8c69.8-433.6,412.5-776.3,846.1-846.1c190.4-29.6,7551.2-29.6,7741.6,0c433.6,69.8,776.3,412.5,846.1,846.1c29.6,188.3,29.6,5861.2,0,6049.4c-69.8,433.6-412.5,776.3-846.1,846.1C8698.7,5016.6,1304,5016.6,1117.8,4989.1z M8721.9,1458.9v-2538.2H4999.2H1276.5v2538.2v2538.2h3722.7h3722.7V1458.9z M5289-1802.8c63.5-59.2,65.6-175.5,2.1-243.2c-42.3-44.4-61.3-48.7-289.8-48.7c-220,0-247.5,4.2-291.9,46.5c-63.5,59.2-65.6,175.6-2.1,243.3c42.3,44.4,61.3,48.6,289.8,48.6C5217.1-1756.2,5244.6-1760.5,5289-1802.8z"/><path d="M3137.8,3265.2c-76.2-14.8-228.4-71.9-338.4-126.9c-171.3-84.6-228.4-126.9-391.3-291.9c-310.9-315.2-433.6-611.3-437.9-1049.1c-6.3-839.7,664.2-1512.4,1506-1508.1c433.6,2.1,736.1,129,1049.1,440c249.6,247.5,382.8,499.2,440,831.3l12.7,67.7H4187h-789l-44.4,48.6c-46.5,48.7-46.5,57.1-46.5,835.5c0,433.6-6.3,786.9-14.8,784.7C3281.7,3297,3214,3282.2,3137.8,3265.2z"/><path d="M3645.5,2632.8v-666.3h666.3H4978l-12.7,69.8c-57.1,323.6-192.5,579.6-431.5,818.6c-239,239-495,374.4-818.6,431.5l-69.8,12.7V2632.8z"/><path d="M6581.3,1609c-101.5-21.2-184-76.1-207.3-141.7c-31.7-84.6-27.5-1656.2,6.3-1719.6c44.4-88.8,150.2-135.4,310.9-135.4c160.7,0,266.5,46.5,310.9,135.4c38.1,74,38.1,1656.2,0,1730.2C6951.5,1581.5,6754.8,1642.9,6581.3,1609z"/><path d="M7596.6,1270.6c-101.5-21.2-184-76.2-207.3-141.7c-31.7-82.5-27.5-1317.8,6.3-1381.2c44.4-88.8,150.2-135.4,310.9-135.4c160.7,0,266.5,46.5,310.9,135.4c38.1,71.9,38.1,1319.9,0,1391.8C7966.8,1243.1,7770.1,1304.5,7596.6,1270.6z"/><path d="M5566.1,932.2c-101.5-21.2-184-76.2-207.3-141.7c-31.7-82.5-25.4-981.4,6.3-1042.8c44.4-88.8,150.2-135.4,310.9-135.4s266.5,46.5,310.9,135.4c19,35.9,27.5,190.4,27.5,526.7c0,336.3-8.5,490.7-27.5,526.7C5936.2,904.7,5739.5,966,5566.1,932.2z"/><path d="M3983.9-3465.3v-355.4l-416.7-36c-875.7-80.4-1480.6-226.3-1584.3-385c-31.7-48.7-31.7-57.1,0-105.8c270.7-412.5,3418.1-592.2,5163.2-296.1c795.3,135.4,1085.1,325.8,753,497.1c-255.9,129-947.6,258-1677.3,308.8l-207.3,14.8v355.4v357.5H4999.2H3983.9V-3465.3z"/></g></g>
</svg>