<?xml version="1.0" encoding="utf-8"?>
<!-- Svg Vector Icons : http://www.sfont.cn -->
<!DOCTYPE svg PUBLIC "-//W3C//DTD SVG 1.1//EN" "http://www.w3.org/Graphics/SVG/1.1/DTD/svg11.dtd">
<svg version="1.1" xmlns="http://www.w3.org/2000/svg" xmlns:xlink="http://www.w3.org/1999/xlink" x="0px" y="0px" viewBox="0 0 1000 1000" enable-background="new 0 0 1000 1000" xml:space="preserve">
<metadata> Svg Vector Icons : http://www.sfont.cn </metadata>
<g><g transform="translate(0.000000,511.000000) scale(0.100000,-0.100000)"><path d="M4772.4,5000c-425.6-53.2-726.3-214.8-855.2-458.3c-55.2-102.3-55.2-110.5-55.2-513.6c0-372.4,4.1-415.3,40.9-476.7c71.6-120.7,155.5-155.5,392.8-163.7l210.7-8.2v-167.8V3046h491h491v165.7v167.8l210.7,8.2c237.4,8.2,321.3,42.9,392.9,163.7c36.8,61.4,40.9,102.3,40.9,476.7c-2,384.7-4.1,415.4-49.1,505.4c-96.2,196.4-333.5,354-642.5,425.6C5238.8,5006.2,4954.4,5022.5,4772.4,5000z"/><path d="M8230.2,3027.6c-53.2-12.3-126.9-45-163.7-67.5c-77.7-49.1-689.5-654.7-675.2-667c6.1-6.1,81.9-67.5,171.9-137.1c204.6-161.6,462.4-419.4,626.1-626.1c69.6-90,133-163.7,141.2-167.8c8.2-2.1,157.5,141.2,333.5,319.2c233.2,233.3,333.5,349.9,366.3,421.5c53.2,120.7,59.3,302.8,12.3,390.8c-16.3,34.8-135,163.7-263.9,288.5C8498.2,3058.3,8438.9,3084.9,8230.2,3027.6z"/><path d="M4686.4,2706.4C3123.2,2585.7,1789.2,1470.6,1375.9-64c-67.5-251.6-75.7-333.5-32.7-415.3c45-88,90-118.7,337.6-218.9c186.2-75.7,251.7-94.1,313.1-85.9c151.4,20.4,245.5,124.8,272.1,298.7c8.2,51.2,40.9,182.1,75.7,288.5c255.8,806.2,861.4,1454.8,1643,1757.6c384.6,149.4,538.1,176,1012.8,176c386.7,0,435.8-6.1,636.3-55.3c928.9-233.2,1661.4-883.9,1980.6-1751.4c128.9-349.9,153.5-507.4,155.5-965.8c0-388.7-4.1-435.8-55.3-636.3c-139.1-548.3-386.7-982.1-777.5-1360.6c-376.5-366.2-775.4-587.2-1303.3-720.2c-200.5-51.2-247.6-55.3-636.3-55.3c-368.3,2.1-444,8.2-613.8,49.1c-511.5,124.8-1002.6,394.9-1340.2,736.6l-120.7,124.8l257.8,259.9c141.2,145.3,268,282.3,280.3,309c57.3,108.4,20.5,292.6-73.7,378.5c-22.5,18.4-495.1,221-1051.7,446C1240.9-1058.3,1204-1048.1,1067-1132c-96.2-59.3-141.2-145.3-141.2-266c0-90,292.6-2414.3,317.1-2516.6c18.4-77.8,130.9-188.3,216.9-210.8c155.5-43,225.1-4.1,515.6,282.4l259.9,257.8l118.7-112.5C3393.3-4708.5,4839.9-5044,6192.3-4593.9C7066-4303.3,7821-3677.3,8275.2-2867c511.5,910.5,615.9,2019.5,282.4,3022c-421.5,1268.5-1512.1,2230.2-2819.5,2490c-188.2,38.9-685.4,88-791.8,81.8C4923.8,2724.8,4807.1,2714.6,4686.4,2706.4z"/><path d="M4753.9,1069.6c-466.5-55.2-922.8-276.2-1256.3-613.8C3336,292.1,3147.8,24,3076.2-141.7l-38.9-92.1l980-394.9l980.1-397v-1070.1v-1070.1l88,10.2c47.1,6.2,141.2,16.4,208.7,24.5c411.3,43,871.6,274.2,1199,599.5c712,714.1,826.6,1808.7,274.2,2655.8c-343.7,527.9-914.6,873.7-1555,947.3C5005.6,1094.1,4968.8,1094.1,4753.9,1069.6z"/></g></g>
</svg>