<?xml version="1.0" encoding="utf-8"?>
<!-- Svg Vector Icons : http://www.sfont.cn -->
<!DOCTYPE svg PUBLIC "-//W3C//DTD SVG 1.1//EN" "http://www.w3.org/Graphics/SVG/1.1/DTD/svg11.dtd">
<svg version="1.1" xmlns="http://www.w3.org/2000/svg" xmlns:xlink="http://www.w3.org/1999/xlink" x="0px" y="0px" viewBox="0 0 1000 1000" enable-background="new 0 0 1000 1000" xml:space="preserve">
<metadata> Svg Vector Icons : http://www.sfont.cn </metadata>
<g><g transform="translate(0.000000,511.000000) scale(0.100000,-0.100000)"><path d="M4624.6,5003.4c-728.3-76-1316-248.9-1896.8-553.1c-435.6-228.2-760.5-467.8-1140.8-838.9C858.7,2903.8,377,2021.1,190.4,1050.8c-267.3-1403.5,62.2-2791,940.3-3950.2c145.2-191.3,578.5-633.8,783.6-799.7c689.1-555.4,1493.4-910.4,2378.4-1048.6c361.8-55.3,1062.5-55.3,1424.3,0c1562.6,244.3,2906.2,1198.4,3629.9,2581.2C9729.4-1440.6,9900-733,9900,108.2c0,500.1-34.6,797.4-149.8,1237.6c-295,1152.3-1030.2,2175.6-2053.5,2862.4c-550.8,368.8-1269.9,645.3-1954.4,751.3C5507.3,4994.1,4811.3,5021.8,4624.6,5003.4z M5431.2,4026.2c1180-136,2233.2-785.9,2873.9-1774.6c760.5-1168.5,848.1-2655,230.5-3888c-474.8-944.9-1297.5-1661.7-2279.3-1988.9c-843.5-278.9-1659.4-278.9-2498.3,0C2769.3-3298.1,1951.1-2586,1478.7-1645.7C817.2-322.8,955.5,1246.7,1842.8,2456.7c154.4,209.7,465.6,534.7,670.7,702.9C3329.3,3821.1,4407.9,4141.4,5431.2,4026.2z"/><path d="M2561.9,108.2v-484h2443h2443v484v484h-2443h-2443V108.2z"/></g></g>
</svg>