<?xml version="1.0" encoding="utf-8"?>
<!-- Svg Vector Icons : http://www.sfont.cn -->
<!DOCTYPE svg PUBLIC "-//W3C//DTD SVG 1.1//EN" "http://www.w3.org/Graphics/SVG/1.1/DTD/svg11.dtd">
<svg version="1.1" xmlns="http://www.w3.org/2000/svg" xmlns:xlink="http://www.w3.org/1999/xlink" x="0px" y="0px" viewBox="0 0 1000 1000" enable-background="new 0 0 1000 1000" xml:space="preserve">
<metadata> Svg Vector Icons : http://www.sfont.cn </metadata>
<g><g transform="translate(0.000000,511.000000) scale(0.100000,-0.100000)"><path d="M1013.1,4984.1c-439-63.8-821.8-456.8-888.2-908.6c-33.2-232.2-33.2-7725.6,0-7929.8c30.6-194,145.5-431.3,275.6-579.3c135.3-150.6,403.3-293.5,617.6-326.7c216.9-35.7,7733.3-38.3,7947.7-2.5c467.1,76.6,832,441.5,908.6,908.6c35.7,214.4,33.2,7730.7-2.5,7947.7c-33.2,214.4-176.1,482.4-326.7,617.6c-148,130.2-385.4,245-579.3,275.6C8779.5,5017.3,1222.3,5014.8,1013.1,4984.1z M8822.9,119.6l-7.6-3823.2l-3820.7-7.7l-3823.2-5.1V111.9v3828.4h3828.4H8828L8822.9,119.6z"/><path d="M2294.3,111.9V-960h2705.4H7705V111.9v1071.9H4999.7H2294.3V111.9z"/></g></g>
</svg>