<?xml version="1.0" encoding="utf-8"?>
<!-- Svg Vector Icons : http://www.sfont.cn -->
<!DOCTYPE svg PUBLIC "-//W3C//DTD SVG 1.1//EN" "http://www.w3.org/Graphics/SVG/1.1/DTD/svg11.dtd">
<svg version="1.1" xmlns="http://www.w3.org/2000/svg" xmlns:xlink="http://www.w3.org/1999/xlink" x="0px" y="0px" viewBox="0 0 1000 1000" enable-background="new 0 0 1000 1000" xml:space="preserve">
<metadata> Svg Vector Icons : http://www.sfont.cn </metadata>
<g><g transform="translate(0.000000,511.000000) scale(0.100000,-0.100000)"><path d="M1026.5,4987.5c-454.3-66.3-834.6-456.8-900.9-923.9c-35.7-232.2-33.2-7723.1,2.6-7929.8c35.7-227.1,137.8-423.7,303.7-589.6c165.9-165.9,362.4-268,589.6-303.7c224.6-38.3,7730.7-38.3,7957.9-2.5c454.3,74,821.8,446.7,895.8,908.6c33.2,204.2,33.2,7728.2,0,7934.9c-35.7,219.5-178.7,497.7-326.7,627.9c-155.7,137.8-395.6,250.1-597.2,278.2C8757.2,5015.6,1217.9,5015.6,1026.5,4987.5z M8828.7,112.7v-3828.4H5000.3H1172V112.7v3828.4h3828.4h3828.4V112.7z"/><path d="M2295,112.7v-536h2705.4h2705.4v536v536H5000.3H2295V112.7z"/></g></g>
</svg>