<?xml version="1.0" encoding="utf-8"?>
<!-- Svg Vector Icons : http://www.sfont.cn -->
<!DOCTYPE svg PUBLIC "-//W3C//DTD SVG 1.1//EN" "http://www.w3.org/Graphics/SVG/1.1/DTD/svg11.dtd">
<svg version="1.1" xmlns="http://www.w3.org/2000/svg" xmlns:xlink="http://www.w3.org/1999/xlink" x="0px" y="0px" viewBox="0 0 1000 1000" enable-background="new 0 0 1000 1000" xml:space="preserve">
<metadata> Svg Vector Icons : http://www.sfont.cn </metadata>
<g><g transform="translate(0.000000,511.000000) scale(0.100000,-0.100000)"><path d="M844.8,2035.2c-370.4-89.7-651.1-384.2-724.7-761.6c-18.4-96.6-23-474-18.4-1253.9l6.9-1115.9l82.8-172.6c133.4-280.7,354.3-464.8,653.4-543c154.2-41.4,8082.7-48.3,8275.9-6.9c372.7,78.2,674.1,379.6,752.4,752.3c39.1,191,34.5,2236.4-6.9,2390.5c-96.6,358.9-377.3,637.3-729.3,717.8C8980.4,2078.9,994.4,2072,844.8,2035.2z M8932.1,111.7v-989.4H4997.7H1063.4v989.4v989.3h3934.4h3934.4V111.7z"/></g></g>
</svg>