<?xml version="1.0" encoding="utf-8"?>
<!-- Svg Vector Icons : http://www.sfont.cn -->
<!DOCTYPE svg PUBLIC "-//W3C//DTD SVG 1.1//EN" "http://www.w3.org/Graphics/SVG/1.1/DTD/svg11.dtd">
<svg version="1.1" xmlns="http://www.w3.org/2000/svg" xmlns:xlink="http://www.w3.org/1999/xlink" x="0px" y="0px" viewBox="0 0 1000 1000" enable-background="new 0 0 1000 1000" xml:space="preserve">
<metadata> Svg Vector Icons : http://www.sfont.cn </metadata>
<g><g transform="translate(0.000000,511.000000) scale(0.100000,-0.100000)"><path d="M2041.8,4750.7c-24.2-79.9-41.2-154.9-38.7-162.2c4.8-7.3,111.4-46,239.6-82.3c125.9-38.7,230-75,230-82.3s-43.6-38.7-96.8-70.2c-145.2-82.3-547.1-392.1-745.5-573.7c-94.4-89.6-261.4-266.3-370.4-394.6C-6,1872.6-257.8-213.9,613.6-1954.3C1364-3450.2,2743.7-4425.7,4416.3-4643.5c1636.3-210.6,3350.1,484.1,4388.5,1776.7c685,852.1,1050.5,1832.4,1091.7,2931.3c21.8,590.6-58.1,1147.3-244.5,1708.9C9550.4,2076,9339.8,2531,9281.7,2577c-65.4,48.4-186.4,36.3-244.5-26.6c-77.5-82.3-65.4-179.1,46-406.7c353.4-716.5,505.9-1655.7,397-2471.4C9339.8-1400,8877.4-2312.5,8105.3-3048.4c-331.6-317.1-631.8-527.7-1057.8-745.5c-1132.8-573.7-2367.3-653.6-3572.8-230C2291.1-3607.5,1286.5-2644.1,819.4-1472.6c-213,535-305,968.2-324.4,1537.1c-36.3,1038.4,266.3,2016.3,888.4,2853.8c176.7,239.6,501.1,580.9,723.7,762.5c184,150.1,515.6,382.5,527.7,367.9c4.8-4.8-19.4-94.4-53.3-198.5c-31.5-106.5-60.5-203.3-60.5-220.3c0-29,193.6-104.1,268.7-104.1c31.5,0,53.2,36.3,79.9,128.3c21.8,67.8,92,300.2,157.3,513.2c67.8,213,113.8,394.6,104.1,401.8c-14.5,14.5-459.9,154.9-941.6,300.2l-101.7,31.5L2041.8,4750.7z"/><path d="M4876.2,3782.5l-67.8-58.1l-7.3-1464.4l-4.8-1464.4l-55.7-14.5c-94.4-24.2-230-157.3-297.7-295.3c-55.7-113.8-62.9-152.5-53.2-295.3c7.3-89.6,29-196.1,50.8-237.2l38.7-75l-687.4-856.9c-750.4-936.7-757.6-948.8-629.4-1074.7c62.9-65.4,130.7-75,208.2-36.3c26.6,14.5,351,406.7,723.7,871.4l677.8,844.8l152.5-14.5c409.1-36.3,723.8,268.7,687.5,670.5c-4.9,75-29.1,171.9-50.8,213c-55.7,106.5-198.5,246.9-295.3,285.6l-82.3,33.9v1462v1464.5l-62.9,48.4C5036,3857.5,4958.5,3852.7,4876.2,3782.5z M5161.9,381.6c50.8-53.3,70.2-94.4,70.2-159.8c0-123.5-106.5-230-230-230c-65.4,0-106.5,19.4-159.8,70.2c-50.8,53.3-70.2,94.4-70.2,159.8c0,123.4,106.5,230,230,230C5067.5,451.8,5108.6,432.4,5161.9,381.6z"/></g></g>
</svg>