<?xml version="1.0" encoding="utf-8"?>
<!-- Svg Vector Icons : http://www.sfont.cn -->
<!DOCTYPE svg PUBLIC "-//W3C//DTD SVG 1.1//EN" "http://www.w3.org/Graphics/SVG/1.1/DTD/svg11.dtd">
<svg version="1.1" xmlns="http://www.w3.org/2000/svg" xmlns:xlink="http://www.w3.org/1999/xlink" x="0px" y="0px" viewBox="0 0 1000 1000" enable-background="new 0 0 1000 1000" xml:space="preserve">
<metadata> Svg Vector Icons : http://www.sfont.cn </metadata>
<g><g><path d="M689,13c-166.2,0-300.9,106.6-300.9,238.2c0,78.4,48,147.7,121.8,191.1c-7.2,39.6-30.2,86.2-62.3,118.3c78.5-5.9,147.6-28.4,192.8-74.6c15.9,2.1,32.1,3.4,48.7,3.4c166.2,0,301-106.6,301-238.2S855.3,13,689,13z M757.8,203.6c-9.6,3.2-19.9-2-23.1-11.5c-4-11.9-18.4-25.9-45.9-25.9c-22.7,0-36.1,15.2-37.6,30.1c-1.9,18.7,13.5,33.3,41.4,39.2c56.6,11.9,73.2,49.8,70.2,78.6c-3.1,30-25.9,53.5-55.7,60.5v21c0,10.1-8.2,18.2-18.2,18.2c-10.1,0-18.2-8.2-18.2-18.2v-20.3c-35.4-6-55.6-29-62.3-49.2c-3.2-9.6,2-19.9,11.5-23.1c9.6-3.2,19.9,2,23.1,11.5c4,11.9,18.4,25.9,45.9,25.9c22.7,0,36.1-15.2,37.6-30.1c1.9-18.7-13.5-33.3-41.4-39.2c-56.6-11.9-73.2-49.8-70.2-78.6c3.1-30,25.9-53.5,55.7-60.5v-21c0-10.1,8.2-18.2,18.2-18.2c10.1,0,18.2,8.2,18.2,18.2v20.3c35.4,6,55.6,29,62.3,49.2C772.5,190.1,767.3,200.4,757.8,203.6z M610.8,969c-48.4,48.4-228.8,2.5-407.1-175.7C25.5,615-20.4,434.6,28,386.2C70,344.3,121.1,271,197.8,366.4c76.7,95.4,39,122.1-4.3,165.4c-30.2,30.2,32.9,106.7,99,172.8c66,66.1,142.5,129.2,172.8,99c43.3-43.3,70-81,165.4-4.3C726,876,652.8,927.1,610.8,969z"/></g><g></g><g></g><g></g><g></g><g></g><g></g><g></g><g></g><g></g><g></g><g></g><g></g><g></g><g></g><g></g></g>
</svg>