<?xml version="1.0" encoding="utf-8"?>
<!-- Svg Vector Icons : http://www.sfont.cn -->
<!DOCTYPE svg PUBLIC "-//W3C//DTD SVG 1.1//EN" "http://www.w3.org/Graphics/SVG/1.1/DTD/svg11.dtd">
<svg version="1.1" xmlns="http://www.w3.org/2000/svg" xmlns:xlink="http://www.w3.org/1999/xlink" x="0px" y="0px" viewBox="0 0 1000 1000" enable-background="new 0 0 1000 1000" xml:space="preserve">
<metadata> Svg Vector Icons : http://www.sfont.cn </metadata>
<g><g transform="translate(0.000000,511.000000) scale(0.100000,-0.100000)"><path d="M4092.5,4982.5c-87.2-37.7-150.8-108.4-306.4-351.2l-117.9-179.1l-1289.3-7.1c-1258.7-7.1-1289.3-7.1-1353-56.6c-124.9-91.9-162.6-167.4-162.6-315.8c0-148.5,37.7-223.9,162.6-315.8c63.6-49.5,87.2-49.5,1522.7-49.5c1699.5,0,1501.5-37.7,1744.2,325.3l153.2,226.3H5000h553.9l153.2-226.3c242.8-363,44.8-325.3,1744.2-325.3c1435.5,0,1459,0,1522.7,49.5c124.9,91.9,162.6,167.4,162.6,315.8c0,148.5-37.7,223.9-162.6,315.8c-63.6,49.5-94.3,49.5-1352.9,56.6l-1289.3,7.1l-153.2,226.3c-238.1,353.6-136.7,325.3-1150.3,330C4344.7,5013.1,4149.1,5008.4,4092.5,4982.5z"/><path d="M1829.7,3473.9c-96.6-42.4-195.6-162.6-212.1-256.9c-18.8-103.7,360.6-7672.3,388.9-7761.9c28.3-87.2,127.3-186.2,219.2-219.2c44.8-18.8,919.3-25.9,2776.6-25.9c2234.5,0,2722.4,4.7,2786.1,33c99,40,200.4,160.3,216.8,256.9c23.6,139.1,391.3,7641.7,377.1,7717.1c-16.5,96.6-117.9,216.8-216.9,256.9C8054.8,3521.1,1935.8,3521.1,1829.7,3473.9z M3809.7,1750.9c33-30.6,58.9-75.4,58.9-99c0-23.6,42.4-1070.1,96.6-2324.1c87.2-2088.4,91.9-2288.7,56.6-2340.6c-66-101.3-238.1-103.7-304.1-2.3c-28.3,42.4-54.2,499.7-129.6,2338.2c-54.2,1258.7-96.6,2305.2-96.6,2328.8c0,68.4,106.1,157.9,188.6,157.9C3724.8,1809.8,3774.3,1788.6,3809.7,1750.9z M5129.6,1750.9l58.9-56.6V-641.5v-2335.9l-58.9-56.6c-75.4-77.8-183.8-77.8-259.3,0l-58.9,56.6v2335.9v2335.9l58.9,56.6c35.4,37.7,84.9,58.9,129.6,58.9S5094.3,1788.6,5129.6,1750.9z M6449.6,1750.9c33-30.6,58.9-75.4,58.9-99c0-23.6-42.4-1070.1-96.6-2328.8c-75.4-1838.5-101.4-2295.8-129.6-2338.2c-66-101.3-238.1-99-304.1,2.3c-35.4,51.9-30.6,252.2,56.6,2340.6c54.2,1254,96.6,2300.5,96.6,2324.1c0,68.4,106.1,157.9,188.6,157.9C6364.8,1809.8,6414.2,1788.6,6449.6,1750.9z"/></g></g>
</svg>