<?xml version="1.0" encoding="utf-8"?>
<!-- Svg Vector Icons : http://www.sfont.cn -->
<!DOCTYPE svg PUBLIC "-//W3C//DTD SVG 1.1//EN" "http://www.w3.org/Graphics/SVG/1.1/DTD/svg11.dtd">
<svg version="1.1" xmlns="http://www.w3.org/2000/svg" xmlns:xlink="http://www.w3.org/1999/xlink" x="0px" y="0px" viewBox="0 0 1000 1000" enable-background="new 0 0 1000 1000" xml:space="preserve">
<metadata> Svg Vector Icons : http://www.sfont.cn </metadata>
<g><path d="M157.9,10v152H215V61.7h661.4l1.2,700.3H704.9l0.1,176.3H215V836.4h-57.1V990h547l228.5-228V10H157.9z"/><path d="M704.9,224.5h111.4v80.1H704.9V224.5z"/><path d="M704.9,382.8h111.4v80.1H704.9V382.8z"/><path d="M704.9,541.1h111.4v80.1H704.9V541.1z"/><path d="M438.3,686.9h-90.2v-42.4h90.2v-21l-90.2-0.3v-40.4h73.8l-44.8-78.8c-2.2-2.7-6.4-10.2-6.4-10.2l47.4-20.2l50.8,92.8l55.8-93.5l43.1,25.7l-51.8,84.2h67.7l-0.3,41.1l-82.4,0.3v20.4h82.8v42.1l-82.8-0.3v73.4h-62.8L438.3,686.9L438.3,686.9z"/><path d="M296.9,712.2c-20.1-28-32-62.3-32-99.4c0-69.1,41.1-128.6,100.2-155.3H139.3c-19.3,0-35-15.7-35-35V310.2c0-19.3,15.7-35,35-35h400c19.3,0,35,15.7,35,35v112.4c0,10.5-4.7,19.9-12,26.3c17.9,5.1,34.7,13,49.7,23.3V292.4c0-32.2-26.1-58.3-58.3-58.3H124.9c-32.2,0-58.3,26.1-58.3,58.3v361.5c0,32.2,26.1,58.3,58.3,58.3h0c0,0.3,0,0.7,0,1c0,37.3,26.5,67.6,59.3,67.6c32.7,0,59.3-30.2,59.3-67.6c0-0.3,0-0.7,0-1H296.9z M161.2,572.7c-21,0-38-17-38-38c0-21,17-38,38-38c21,0,38,17,38,38C199.2,555.7,182.2,572.7,161.2,572.7z"/></g>
</svg>