<?xml version="1.0" encoding="utf-8"?>
<!-- Svg Vector Icons : http://www.sfont.cn -->
<!DOCTYPE svg PUBLIC "-//W3C//DTD SVG 1.1//EN" "http://www.w3.org/Graphics/SVG/1.1/DTD/svg11.dtd">
<svg version="1.1" xmlns="http://www.w3.org/2000/svg" xmlns:xlink="http://www.w3.org/1999/xlink" x="0px" y="0px" viewBox="0 0 1000 1000" enable-background="new 0 0 1000 1000" xml:space="preserve">
<metadata> Svg Vector Icons : http://www.sfont.cn </metadata>
<g><g transform="translate(0.000000,511.000000) scale(0.100000,-0.100000)"><path d="M7629.3,420.7v-4398H8669h1039.8v4398v4398H8669H7629.3V420.7z M9469.8,420.7v-4159H8669h-800.7v4159v4159H8669h800.7V420.7z"/><path d="M2729.3-1873.9v-2103.4H3769h1039.8v2103.4V229.5H3769H2729.3V-1873.9z M4569.8-1873.9v-1864.4H3781h-788.8v1864.4V-9.5H3781h788.8V-1873.9z"/><path d="M5191.2-2328v-1649.3H6231h1039.8V-2328v1649.3H6231H5191.2V-2328z M7007.8-2328v-1410.2H6219h-788.8V-2328v1410.2H6219h788.8V-2328z"/><path d="M291.2-2782.2v-1195.1H1331h1039.8l-4.8,1190.3l-7.2,1188l-1032.6,7.2l-1035,4.8V-2782.2z M2131.7-2794.2v-944.1H1331H530.2v944.1v944.2H1331h800.7V-2794.2z"/><path d="M100-4479.3v-119.5h4900h4900v119.5v119.5H5000H100V-4479.3z"/></g></g>
</svg>