<?xml version="1.0" encoding="utf-8"?>
<!-- Svg Vector Icons : http://www.sfont.cn -->
<!DOCTYPE svg PUBLIC "-//W3C//DTD SVG 1.1//EN" "http://www.w3.org/Graphics/SVG/1.1/DTD/svg11.dtd">
<svg version="1.1" xmlns="http://www.w3.org/2000/svg" xmlns:xlink="http://www.w3.org/1999/xlink" x="0px" y="0px" viewBox="0 0 1000 1000" enable-background="new 0 0 1000 1000" xml:space="preserve">
<metadata> Svg Vector Icons : http://www.sfont.cn </metadata>
<g><g><g id="Zoom_In_1_"><g><path d="M760.3,677.2c54.7-70.1,87.4-157.8,87.4-253c0-228.6-187.9-414.5-418.9-414.5C197.9,9.6,10,195.6,10,424.2c0,228.6,187.9,414.5,418.9,414.5c90.6,0,174.5-28.7,243.1-77.3l231.4,228.9l86.7-85.8L760.3,677.2z M428.9,687c-146.4,0-265.6-117.9-265.6-262.8c0-144.9,119.1-262.8,265.6-262.8c146.4,0,265.6,117.9,265.6,262.8C694.4,569.1,575.3,687,428.9,687z M459.5,287.6h-61.3v106.2H290.9v60.7h107.3v106.2h61.3V454.5h107.3v-60.7H459.5V287.6z"/></g></g></g><g></g><g></g><g></g><g></g><g></g><g></g><g></g><g></g><g></g><g></g><g></g><g></g><g></g><g></g><g></g></g>
</svg>